<?xml version="1.0" standalone="no"?>
<!DOCTYPE svg PUBLIC "-//W3C//DTD SVG 1.1//EN" "http://www.w3.org/Graphics/SVG/1.1/DTD/svg11.dtd" >
<svg>
<metadata>
Created by FontForge 20090622 at Sat Sep 15 09:34:08 2018
 By deploy user
Armasen Typefaces&#194;&#174; 2011 - All rights reserved.
</metadata>
<defs>
<font id="Kelson-Regular" horiz-adv-x="541" >
  <font-face 
    font-family="Kelson"
    font-weight="400"
    font-stretch="normal"
    units-per-em="1000"
    panose-1="2 0 5 6 0 0 0 2 0 4"
    ascent="800"
    descent="-200"
    x-height="593"
    cap-height="762"
    bbox="-196 -241 1021 1039"
    underline-thickness="50"
    underline-position="-50"
    unicode-range="U+0008-U+FB02"
  />
<missing-glyph horiz-adv-x="500" 
d="M71 0v762h358v-762h-358zM118 714v-666h264v666h-264z" />
    <glyph glyph-name="fi" unicode="fi" horiz-adv-x="560" 
d="M163 583v-9h141v-81h-141v-493h-92v571q0 114 45 163t148 49q30 0 57 -5v-77q-24 4 -44 4q-63 0 -88.5 -27.5t-25.5 -94.5zM489 593v-593h-92v593h92zM490 800v-97h-94v97h94z" />
    <glyph glyph-name="fl" unicode="fl" horiz-adv-x="605" 
d="M163 583v-9h141v-81h-141v-493h-92v571q0 114 45 163t148 49q30 0 57 -5v-77q-24 4 -44 4q-63 0 -88.5 -27.5t-25.5 -94.5zM575 77v-81q-108 -11 -144.5 32.5t-36.5 160.5v583h92v-588q0 -70 17 -89.5t72 -17.5z" />
    <glyph glyph-name=".notdef" horiz-adv-x="500" 
d="M71 0v762h358v-762h-358zM118 714v-666h264v666h-264z" />
    <glyph glyph-name=".null" horiz-adv-x="0" 
 />
    <glyph glyph-name=".null" horiz-adv-x="0" 
 />
    <glyph glyph-name=".null" horiz-adv-x="0" 
 />
    <glyph glyph-name="nonmarkingreturn" horiz-adv-x="333" 
 />
    <glyph glyph-name="CR" unicode="&#xd;" horiz-adv-x="250" 
 />
    <glyph glyph-name="space" unicode=" " horiz-adv-x="250" 
 />
    <glyph glyph-name="exclam" unicode="!" horiz-adv-x="231" 
d="M72 762h87l-3 -540h-81zM161 100v-100h-91v100h91z" />
    <glyph glyph-name="quotedbl" unicode="&#x22;" horiz-adv-x="338" 
d="M119 539h-64l-8 233h83zM279 539h-64l-8 233h83z" />
    <glyph glyph-name="numbersign" unicode="#" horiz-adv-x="534" 
d="M407 763h65l-40 -192h101l-13 -64h-101l-52 -251h102l-14 -64h-101l-39 -192h-65l39 192h-118l-39 -192h-66l40 192h-101l14 64h100l51 251h-101l14 64h101l39 192h66l-41 -192h119zM236 507l-52 -251h119l51 251h-118z" />
    <glyph glyph-name="dollar" unicode="$" horiz-adv-x="574" 
d="M332 -104h-83v95q-93 8 -141.5 61t-49.5 137h91q3 -121 136 -121q77 0 107.5 32t30.5 104q0 60 -33.5 92.5t-123.5 57.5q-46 13 -76.5 27t-58.5 38t-41.5 61t-13.5 89q0 180 173 200v98h83v-98q166 -18 178 -191h-91q-4 59 -39 87t-90 28q-62 0 -93 -27.5t-31 -92.5
q0 -60 29 -90t102 -50q53 -14 89.5 -30.5t67.5 -42t46 -64t15 -90.5q0 -104 -45.5 -154.5t-137.5 -60.5v-95z" />
    <glyph glyph-name="percent" unicode="%" horiz-adv-x="753" 
d="M264 563v65q0 55 -15.5 74.5t-54.5 19.5t-54.5 -19.5t-15.5 -74.5v-65q0 -57 15.5 -78t54.5 -21t54.5 21t15.5 78zM55 558v77q0 147 139 147t139 -147v-77q0 -85 -37.5 -119t-101.5 -34t-101.5 34t-37.5 119zM527 762h77l-378 -762h-77zM630 138v65q0 55 -15.5 74.5
t-54.5 19.5t-54.5 -19.5t-15.5 -74.5v-65q0 -57 15.5 -78t54.5 -21t54.5 21t15.5 78zM421 133v77q0 147 139 147t139 -147v-77q0 -85 -37.5 -119t-101.5 -34t-101.5 34t-37.5 119z" />
    <glyph glyph-name="ampersand" unicode="&#x26;" horiz-adv-x="660" 
d="M598 362h-104v-177q0 -65 19 -88.5t65 -23.5q15 0 39 4v-82q-30 -6 -53 -6q-105 0 -130 79q-48 -80 -170 -80q-103 0 -159 56.5t-56 158.5q0 80 36.5 129.5t95.5 68.5q-55 19 -84 65t-29 111q0 94 57.5 145.5t155.5 51.5t157.5 -49.5t66.5 -146.5h-93q-10 119 -129 119
q-57 0 -92 -29t-35 -94q0 -59 36 -96.5t110 -37.5h296v-78zM408 220v142h-107q-70 0 -115.5 -34.5t-45.5 -117.5q0 -66 33 -105.5t102 -39.5q71 0 102 39.5t31 115.5z" />
    <glyph glyph-name="quotesingle" unicode="'" horiz-adv-x="177" 
d="M119 539h-64l-8 233h83z" />
    <glyph glyph-name="parenleft" unicode="(" horiz-adv-x="307" 
d="M161 619v-551q0 -71 16.5 -98.5t69.5 -27.5q11 0 23 2v-83q-23 -3 -41 -3q-93 0 -127.5 48t-34.5 162v551q0 113 34.5 161t127.5 48q26 0 41 -2v-83q-2 0 -10 0.5t-13 0.5q-53 0 -69.5 -27t-16.5 -98z" />
    <glyph glyph-name="parenright" unicode=")" horiz-adv-x="307" 
d="M146 68v551q0 71 -16.5 98t-69.5 27q-6 0 -13 -0.5t-10 -0.5v83q16 2 41 2q94 0 128 -47.5t34 -161.5v-551q0 -114 -34 -162t-128 -48q-17 0 -41 3v83q12 -2 23 -2q52 0 69 27.5t17 98.5z" />
    <glyph glyph-name="asterisk" unicode="*" horiz-adv-x="317" 
d="M208 669q-1 -4 -1 -21q36 -12 76 -52l-60 -60q-39 39 -51 76h-21q-12 -37 -53 -76l-59 59q38 41 75 54q2 6 2 21q-40 13 -77 52l60 60q39 -39 52 -77h20q12 39 54 77l59 -60q-41 -41 -76 -53z" />
    <glyph glyph-name="plus" unicode="+" horiz-adv-x="514" 
d="M452 417v-77h-154v-156h-83v156h-153v77h153v158h83v-158h154z" />
    <glyph glyph-name="comma" unicode="," horiz-adv-x="238" 
d="M97 -162h-76l73 261h95z" />
    <glyph glyph-name="hyphen" unicode="-" horiz-adv-x="361" 
d="M302 350v-77h-243v77h243z" />
    <glyph glyph-name="period" unicode="." horiz-adv-x="238" 
d="M168 105v-105h-99v105h99z" />
    <glyph glyph-name="slash" unicode="/" horiz-adv-x="382" 
d="M262 772h86l-228 -784h-86z" />
    <glyph glyph-name="zero" unicode="0" horiz-adv-x="550" 
d="M149 524v-280q0 -96 29 -133.5t97 -37.5t97 37.5t29 133.5v280q0 92 -29 128.5t-97 36.5t-97 -36.5t-29 -128.5zM275 774q115 0 168 -58.5t53 -193.5v-276q0 -139 -53 -198.5t-168 -59.5q-114 0 -167 60t-53 198v276q0 135 53 193.5t167 58.5z" />
    <glyph glyph-name="one" unicode="1" horiz-adv-x="457" 
d="M45 84h156v584l-160 -72v92l172 74h82v-678h139v-84h-389v84z" />
    <glyph glyph-name="two" unicode="2" horiz-adv-x="508" 
d="M147 151v-67h320v-84h-418v128q0 64 18 111t46 74t62.5 48t69 38t62.5 36.5t46 52.5t18 79q0 69 -32 98t-92 29q-122 0 -122 -140h-84q0 219 209 219q105 0 160 -52.5t55 -149.5q0 -58 -17.5 -102t-45.5 -70t-62 -46t-68 -37.5t-62 -37.5t-45.5 -52t-17.5 -75z" />
    <glyph glyph-name="three" unicode="3" horiz-adv-x="526" 
d="M464 582q0 -66 -28 -115.5t-80 -67.5q53 -16 87.5 -62.5t34.5 -126.5q0 -104 -59 -163t-164 -59q-108 0 -165.5 54.5t-57.5 157.5h92q0 -60 34 -94t98 -34q65 0 97.5 36t32.5 101q0 79 -42 111.5t-122 32.5h-58v80h74q71 0 104 39t33 98q0 120 -129 120q-124 0 -124 -126
h-83q0 210 213 210q94 0 153 -48t59 -144z" />
    <glyph glyph-name="four" unicode="4" horiz-adv-x="542" 
d="M429 0h-92v186h-313v79l294 497h111v-493h80v-83h-80v-186zM114 269h223v378z" />
    <glyph glyph-name="five" unicode="5" horiz-adv-x="528" 
d="M393 215v26q0 136 -150 136h-173v385h375v-85h-286v-217h93q114 0 173.5 -55t60.5 -162v-27q0 -114 -58 -171t-163 -57q-210 0 -210 220h91q0 -68 26.5 -102t91.5 -34q68 0 98.5 34.5t30.5 108.5z" />
    <glyph glyph-name="six" unicode="6" horiz-adv-x="533" 
d="M145 530v-112q49 62 151 62q199 0 199 -226v-44q0 -222 -223 -222q-108 0 -163 53t-55 175v314q0 123 54.5 183.5t167.5 60.5q105 0 156 -52t51 -146h-89q-2 60 -30.5 89t-87.5 29q-72 0 -101.5 -42t-29.5 -122zM146 267v-51q0 -81 28.5 -115t99.5 -34q65 0 96.5 34.5
t31.5 113.5v35q0 78 -31.5 114.5t-96.5 36.5q-128 0 -128 -134z" />
    <glyph glyph-name="seven" unicode="7" horiz-adv-x="469" 
d="M177 0h-104l271 677h-329v85h429v-79z" />
    <glyph glyph-name="eight" unicode="8" horiz-adv-x="544" 
d="M271 69q71 0 106 39t35 104q0 144 -141 144t-141 -144q0 -65 35 -104t106 -39zM271 437q67 0 98.5 35t31.5 93q0 67 -36 97.5t-94 30.5t-94 -30.5t-36 -97.5q0 -58 31.5 -93t98.5 -35zM271 -12q-114 0 -174.5 58t-60.5 163q0 78 32.5 126t84.5 67q-103 38 -103 174
q0 100 59.5 149t161.5 49t161.5 -49t59.5 -149q0 -136 -103 -174q52 -19 84.5 -67t32.5 -126q0 -105 -60.5 -163t-174.5 -58z" />
    <glyph glyph-name="nine" unicode="9" horiz-adv-x="533" 
d="M257 68q72 0 101.5 42t29.5 122v112q-49 -62 -151 -62q-199 0 -199 226v44q0 222 223 222q108 0 163 -53t55 -175v-314q0 -123 -54.5 -183.5t-167.5 -60.5q-105 0 -156 52t-51 146h89q2 -60 30.5 -89t87.5 -29zM387 495v51q0 81 -28.5 115t-99.5 34q-65 0 -96.5 -34.5
t-31.5 -113.5v-35q0 -78 31.5 -114.5t96.5 -36.5q128 0 128 134z" />
    <glyph glyph-name="colon" unicode=":" horiz-adv-x="238" 
d="M168 105v-105h-99v105h99zM168 591v-105h-99v105h99z" />
    <glyph glyph-name="semicolon" unicode=";" horiz-adv-x="238" 
d="M97 -162h-76l73 261h95zM167 591v-105h-99v105h99z" />
    <glyph glyph-name="less" unicode="&#x3c;" horiz-adv-x="514" 
d="M87 275v86l339 186v-88l-250 -140l250 -136v-93z" />
    <glyph glyph-name="equal" unicode="=" horiz-adv-x="514" 
d="M436 309v-77h-358v77h358zM436 517v-77h-358v77h358z" />
    <glyph glyph-name="greater" unicode="&#x3e;" horiz-adv-x="514" 
d="M426 362v-86l-339 -186v88l250 139l-250 137v93z" />
    <glyph glyph-name="question" unicode="?" horiz-adv-x="495" 
d="M266 243v-21h-87v20q0 51 10.5 86.5t27 54.5t37 32t40.5 24t36.5 25t27 41t10.5 67q0 71 -34 98.5t-95 27.5q-65 0 -97 -38t-32 -105h-82q0 112 57 165.5t159 53.5q216 0 216 -199q0 -58 -14.5 -97t-36 -56t-46.5 -33t-46.5 -28.5t-36 -42.5t-14.5 -75zM268 100v-100h-91
v100h91z" />
    <glyph glyph-name="at" unicode="@" horiz-adv-x="1001" 
d="M596 572h71v-241q0 -65 19 -90t61 -25q49 0 72 41t23 147q0 152 -87.5 227.5t-252.5 75.5q-186 0 -264.5 -78.5t-78.5 -270.5q0 -179 83 -253t256 -74q149 0 260 32v-66q-110 -32 -262 -32q-98 0 -171 19t-130 62t-86.5 120.5t-29.5 188.5q0 221 103 319.5t324 98.5
q70 0 130.5 -12.5t113 -40.5t89.5 -69.5t58.5 -103.5t21.5 -140q0 -136 -41 -196.5t-125 -60.5q-106 0 -131 83q-41 -86 -148 -86q-77 0 -122.5 48.5t-45.5 150.5v38q0 100 45.5 149t116.5 49q89 0 126 -63zM383 379v-29q0 -135 104 -135q48 0 77 29.5t29 89.5v61
q0 119 -104 119q-52 0 -79 -31.5t-27 -103.5z" />
    <glyph glyph-name="A" unicode="A" horiz-adv-x="601" 
d="M478 0l-59 214h-244l-58 -214h-98l224 762h115l224 -762h-104zM298 661l-99 -360h197z" />
    <glyph glyph-name="B" unicode="B" horiz-adv-x="578" 
d="M534 226v-19q0 -111 -57.5 -159t-184.5 -48h-218v762h195q120 0 177 -41t58 -151v-14q0 -119 -83 -153q50 -18 81.5 -62t31.5 -115zM439 207v12q0 75 -36.5 105t-115.5 30h-122v-278h136q76 0 107 30.5t31 100.5zM165 686v-258h120q70 0 99 29.5t29 95.5v8q0 75 -34 100
t-108 25h-106z" />
    <glyph glyph-name="C" unicode="C" horiz-adv-x="577" 
d="M433 231h99v-13q-2 -115 -55.5 -172.5t-172.5 -57.5q-131 0 -185 66.5t-54 203.5v243q0 138 54.5 205.5t184.5 67.5q227 0 227 -229v-9h-100v11q0 138 -127 138q-84 0 -112 -45t-28 -139v-239q0 -97 27 -141t113 -44q69 0 97.5 32.5t31.5 107.5v14z" />
    <glyph glyph-name="D" unicode="D" horiz-adv-x="596" 
d="M74 0v762h201q140 0 198 -66.5t58 -211.5v-212q0 -141 -58.5 -206.5t-198.5 -65.5h-200zM273 678h-104v-594h106q91 0 124 42.5t33 140.5v222q0 103 -33 146t-126 43z" />
    <glyph glyph-name="E" unicode="E" horiz-adv-x="530" 
d="M171 678v-245h261v-84h-261v-265h308v-84h-403v762h393v-84h-298z" />
    <glyph glyph-name="F" unicode="F" horiz-adv-x="512" 
d="M475 762v-84h-304v-251h260v-84h-260v-343h-95v762h399z" />
    <glyph glyph-name="G" unicode="G" horiz-adv-x="613" 
d="M310 391h244v-146q0 -133 -54 -195t-189 -62q-136 0 -191 65t-55 203v246q0 140 59 206t190 66q126 0 183 -57t58 -173v-7h-96v9q0 77 -33 109.5t-112 32.5q-87 0 -120.5 -43t-33.5 -143v-246q0 -104 31.5 -144t122.5 -40q84 0 116 39.5t32 126.5v69h-152v84z" />
    <glyph glyph-name="H" unicode="H" horiz-adv-x="622" 
d="M547 762v-762h-94v348h-283v-348h-95v762h95v-327h283v327h94z" />
    <glyph glyph-name="I" unicode="I" horiz-adv-x="247" 
d="M171 762v-762h-95v762h95z" />
    <glyph glyph-name="J" unicode="J" horiz-adv-x="500" 
d="M10 190h88q2 -57 29.5 -86.5t88.5 -29.5q64 0 92.5 36.5t28.5 119.5v532h95v-525q0 -135 -53 -192t-160 -57q-207 0 -209 202z" />
    <glyph glyph-name="K" unicode="K" horiz-adv-x="604" 
d="M583 0h-115l-219 345h-80v-345h-95v762h95v-332h79l198 332h110l-230 -370z" />
    <glyph glyph-name="L" unicode="L" horiz-adv-x="487" 
d="M454 86v-86h-378v762h95v-676h283z" />
    <glyph glyph-name="M" unicode="M" horiz-adv-x="713" 
d="M75 762h113l171 -415l173 415h106v-762h-92v603l-151 -360h-78l-150 353v-596h-92v762z" />
    <glyph glyph-name="N" unicode="N" horiz-adv-x="615" 
d="M74 762h101l273 -586v586h94v-762h-99l-275 578v-578h-94v762z" />
    <glyph glyph-name="O" unicode="O" horiz-adv-x="620" 
d="M164 509v-256q0 -94 30.5 -136.5t115.5 -42.5q86 0 116 42.5t30 136.5v256q0 94 -30.5 136.5t-115.5 42.5t-115.5 -42.5t-30.5 -136.5zM310 774q132 0 188.5 -65t56.5 -202v-252q0 -137 -56.5 -202t-188.5 -65t-188.5 65t-56.5 202v252q0 137 56.5 202t188.5 65z" />
    <glyph glyph-name="P" unicode="P" horiz-adv-x="535" 
d="M281 308h-112v-308h-95v762h201q115 0 172 -48.5t57 -166.5v-26q0 -116 -52.5 -164.5t-170.5 -48.5zM169 677v-284h113q74 0 101 27.5t27 100.5v25q0 77 -32 104t-104 27h-105z" />
    <glyph glyph-name="Q" unicode="Q" horiz-adv-x="620" 
d="M310 774q132 0 188.5 -65t56.5 -202v-252q0 -193 -115 -244l89 -174h-110l-64 153q-28 -2 -45 -2q-132 0 -188.5 65t-56.5 202v252q0 137 56.5 202t188.5 65zM164 509v-256q0 -94 30.5 -136.5t115.5 -42.5q86 0 116 42.5t30 136.5v256q0 94 -30.5 136.5t-115.5 42.5
t-115.5 -42.5t-30.5 -136.5z" />
    <glyph glyph-name="R" unicode="R" horiz-adv-x="550" 
d="M74 0v762h196q115 0 172.5 -47.5t57.5 -160.5v-29q0 -79 -25.5 -123t-79.5 -63l129 -339h-106l-114 320q-9 -1 -43 -1h-92v-319h-95zM406 531v16q0 77 -32 104t-104 27h-101v-277h109q74 0 101 28t27 102z" />
    <glyph glyph-name="S" unicode="S" horiz-adv-x="546" 
d="M253 355q-100 29 -148 75t-48 141q0 99 55.5 151t160.5 52q212 0 227 -195h-94q-10 111 -131 111q-125 0 -125 -116q0 -57 30.5 -86t105.5 -51q109 -31 164.5 -82.5t55.5 -148.5q0 -112 -59 -165t-177 -53q-111 0 -168.5 55t-58.5 146h93q5 -116 138 -116
q72 0 104.5 29.5t32.5 102.5q0 60 -34.5 92t-123.5 58z" />
    <glyph glyph-name="T" unicode="T" horiz-adv-x="534" 
d="M314 0h-95v675h-184v87h464v-87h-185v-675z" />
    <glyph glyph-name="U" unicode="U" horiz-adv-x="613" 
d="M450 762h95v-496q0 -141 -53 -209.5t-186 -68.5q-134 0 -186.5 68t-52.5 210v496h96v-502q0 -97 29.5 -141t113.5 -44q85 0 114.5 44t29.5 141v502z" />
    <glyph glyph-name="V" unicode="V" horiz-adv-x="540" 
d="M332 0h-124l-203 762h103l162 -659l162 659h103z" />
    <glyph glyph-name="W" unicode="W" horiz-adv-x="831" 
d="M538 0l-123 594l-123 -594h-110l-157 762h105l112 -635l125 615h101l122 -610l113 630h103l-157 -762h-111z" />
    <glyph glyph-name="X" unicode="X" horiz-adv-x="585" 
d="M559 0h-108l-164 323l-155 -323h-106l206 388l-201 374h108l157 -308l150 308h106l-201 -375z" />
    <glyph glyph-name="Y" unicode="Y" horiz-adv-x="570" 
d="M237 0v330l-229 432h105l174 -355l175 355h100l-230 -433v-329h-95z" />
    <glyph glyph-name="Z" unicode="Z" horiz-adv-x="521" 
d="M478 682l-336 -595h343v-87h-450v79l335 596h-313v87h421v-80z" />
    <glyph glyph-name="bracketleft" unicode="[" horiz-adv-x="328" 
d="M85 -130v957h192v-84h-99v-789h99v-84h-192z" />
    <glyph glyph-name="backslash" unicode="\" horiz-adv-x="394" 
d="M40 772h86l228 -784h-86z" />
    <glyph glyph-name="bracketright" unicode="]" horiz-adv-x="328" 
d="M243 827v-957h-192v84h98v789h-98v84h192z" />
    <glyph glyph-name="asciicircum" unicode="^" horiz-adv-x="576" 
d="M435 245l-147 239l-146 -239h-89l191 311h87l192 -311h-88z" />
    <glyph glyph-name="underscore" unicode="_" horiz-adv-x="449" 
d="M423 -58v-74h-397v74h397z" />
    <glyph glyph-name="grave" unicode="`" horiz-adv-x="512" 
d="M311 654h-81l-102 133h98z" />
    <glyph glyph-name="a" unicode="a" horiz-adv-x="524" 
d="M380 0l-3 55q-46 -67 -151 -67q-82 0 -128 42.5t-46 124.5q0 94 54 138t172 44q47 0 96 -7v73q0 66 -26 96t-82 30q-57 0 -84.5 -26.5t-27.5 -91.5h-84q0 100 49 147t151 47q95 0 143.5 -45.5t48.5 -151.5v-408h-82zM374 196v64q-47 7 -93 7q-74 0 -105.5 -25t-31.5 -79
q0 -99 102 -99q54 0 91 34.5t37 97.5z" />
    <glyph glyph-name="b" unicode="b" 
d="M163 772v-219q44 52 143 52q180 0 180 -229v-164q0 -114 -52 -169t-137 -55q-93 0 -136 53l-2 -41h-88v772h92zM163 405v-206q0 -130 115 -130q116 0 116 148v161q0 75 -27.5 110.5t-86.5 35.5q-55 0 -86 -30t-31 -89z" />
    <glyph glyph-name="c" unicode="c" horiz-adv-x="514" 
d="M378 193h89v-7q0 -99 -49 -148.5t-156 -49.5t-157 54t-50 175v161q0 120 51.5 173.5t158.5 53.5q104 0 152 -47.5t48 -144.5v-10h-89v9q0 56 -25 83.5t-86 27.5q-65 0 -91.5 -32.5t-26.5 -111.5v-162q0 -79 25.5 -113.5t90.5 -34.5q63 0 89 29t26 87v8z" />
    <glyph glyph-name="d" unicode="d" 
d="M390 0l-6 48q-41 -60 -149 -60q-180 0 -180 229v164q0 114 52 169t137 55q90 0 134 -51v218h92v-772h-80zM378 188v206q0 130 -115 130q-116 0 -116 -148v-161q0 -75 27.5 -110.5t86.5 -35.5q55 0 86 30t31 89z" />
    <glyph glyph-name="e" unicode="e" horiz-adv-x="516" 
d="M373 166h86q-2 -90 -48.5 -134t-147.5 -44q-108 0 -158 53t-50 174v164q0 115 51 170.5t155 55.5q105 0 154 -53.5t49 -167.5v-110h-318v-66q0 -76 26 -108.5t90 -32.5q59 0 84 23.5t27 75.5zM262 525q-64 0 -90 -34.5t-26 -115.5v-28h230v33q0 76 -25.5 110.5
t-88.5 34.5z" />
    <glyph glyph-name="f" unicode="f" horiz-adv-x="338" 
d="M163 583v-9h141v-81h-141v-493h-92v571q0 114 45 163t148 49q30 0 57 -5v-77q-24 4 -44 4q-63 0 -88.5 -27.5t-25.5 -94.5z" />
    <glyph glyph-name="g" unicode="g" 
d="M262 -127q65 0 90.5 33t25.5 118v36q-44 -52 -143 -52q-180 0 -180 229v144q0 114 52 169t137 55q92 0 136 -54l3 42h87v-561q0 -128 -52 -181.5t-159 -53.5q-98 0 -143 40.5t-48 122.5h88q3 -45 27 -66t79 -21zM378 208v186q0 130 -115 130q-116 0 -116 -148v-141
q0 -75 27.5 -110.5t86.5 -35.5q55 0 86 30t31 89z" />
    <glyph glyph-name="h" unicode="h" horiz-adv-x="547" 
d="M163 772v-216q44 49 134 49q100 0 142.5 -52.5t42.5 -160.5v-392h-92v384q0 75 -24.5 107.5t-87.5 32.5q-53 0 -84 -30.5t-31 -89.5v-404h-92v772h92z" />
    <glyph glyph-name="i" unicode="i" horiz-adv-x="234" 
d="M163 593v-593h-92v593h92zM164 800v-97h-94v97h94z" />
    <glyph glyph-name="j" unicode="j" horiz-adv-x="234" 
d="M164 800v-97h-94v97h94zM-12 -193v80q51 -2 67 19.5t16 100.5v586h92v-583q0 -117 -38 -163.5t-137 -39.5z" />
    <glyph glyph-name="k" unicode="k" horiz-adv-x="545" 
d="M499 593l-203 -270l233 -323h-115l-194 278h-57v-278h-92v772h92v-412h57l168 233h111z" />
    <glyph glyph-name="l" unicode="l" horiz-adv-x="279" 
d="M249 77v-81q-108 -11 -144.5 32.5t-36.5 160.5v583h92v-588q0 -70 17 -89.5t72 -17.5z" />
    <glyph glyph-name="m" unicode="m" horiz-adv-x="871" 
d="M300 605q117 0 157 -78q45 78 162 78q100 0 141 -52t41 -161v-392h-92v384q0 75 -24.5 107.5t-87.5 32.5q-53 0 -84 -30.5t-31 -89.5v-404h-92v384q0 75 -24.5 107.5t-87.5 32.5q-53 0 -84 -30.5t-31 -89.5v-404h-92v593h80l5 -45q46 57 144 57z" />
    <glyph glyph-name="n" unicode="n" horiz-adv-x="547" 
d="M71 593h80l5 -45q45 57 141 57q100 0 142.5 -52.5t42.5 -160.5v-392h-92v384q0 75 -24.5 107.5t-87.5 32.5q-53 0 -84 -30.5t-31 -89.5v-404h-92v593z" />
    <glyph glyph-name="o" unicode="o" horiz-adv-x="526" 
d="M147 376v-159q0 -85 25 -116.5t91 -31.5q65 0 90 31.5t25 116.5v159q0 85 -25 116.5t-90 31.5q-66 0 -91 -31.5t-25 -116.5zM263 605q109 0 158.5 -52.5t49.5 -175.5v-161q0 -123 -49.5 -175.5t-158.5 -52.5t-158.5 52.5t-49.5 175.5v161q0 123 49.5 175.5t158.5 52.5z
" />
    <glyph glyph-name="p" unicode="p" 
d="M71 593h80l5 -48q42 60 150 60q180 0 180 -229v-164q0 -114 -52 -169t-137 -55q-91 0 -134 51v-232h-92v786zM163 405v-206q0 -130 115 -130q116 0 116 148v161q0 75 -27.5 110.5t-86.5 35.5q-55 0 -86 -30t-31 -89z" />
    <glyph glyph-name="q" unicode="q" 
d="M470 -193h-92v233q-44 -52 -143 -52q-180 0 -180 229v164q0 114 52 169t137 55q93 0 135 -53l3 41h88v-786zM378 188v206q0 130 -115 130q-116 0 -116 -148v-161q0 -75 27.5 -110.5t86.5 -35.5q55 0 86 30t31 89z" />
    <glyph glyph-name="r" unicode="r" horiz-adv-x="351" 
d="M71 593h80l8 -70q19 34 57.5 57.5t85.5 23.5q13 0 29 -2v-95q-16 3 -37 3q-58 0 -94.5 -35.5t-36.5 -105.5v-369h-92v593z" />
    <glyph glyph-name="s" unicode="s" horiz-adv-x="496" 
d="M256 348q44 -7 74.5 -17t61.5 -29.5t46.5 -53t15.5 -80.5q0 -86 -54 -133t-155 -47q-204 0 -204 179h88q0 -50 28.5 -75t91.5 -25q112 0 112 95q0 52 -30 73.5t-98 33.5q-90 15 -134.5 51.5t-44.5 120.5q0 77 51.5 120.5t145.5 43.5q194 0 194 -171h-86q-2 47 -27 69.5
t-83 22.5q-105 0 -105 -81q0 -47 24.5 -66.5t87.5 -30.5z" />
    <glyph glyph-name="t" unicode="t" horiz-adv-x="336" 
d="M244 72q25 0 47 5v-82q-28 -7 -67 -7q-90 0 -126 46.5t-36 150.5v527h94v-139h135v-81h-136v-310q0 -63 20 -86.5t69 -23.5z" />
    <glyph glyph-name="u" unicode="u" horiz-adv-x="543" 
d="M472 0h-80l-6 45q-45 -57 -146 -57q-97 0 -136.5 52t-39.5 161v392h92v-384q0 -75 23.5 -107.5t86.5 -32.5q53 0 83.5 30.5t30.5 89.5v404h92v-593z" />
    <glyph glyph-name="v" unicode="v" horiz-adv-x="486" 
d="M14 593h105l124 -489l126 489h103l-171 -593h-116z" />
    <glyph glyph-name="w" unicode="w" horiz-adv-x="736" 
d="M322 593h99l106 -482l94 482h96l-138 -593h-106l-105 451l-105 -451h-106l-138 593h101l94 -479z" />
    <glyph glyph-name="x" unicode="x" horiz-adv-x="482" 
d="M359 0l-119 243l-122 -243h-100l165 304l-150 289h102l109 -224l114 224h100l-157 -286l161 -307h-103z" />
    <glyph glyph-name="y" unicode="y" horiz-adv-x="489" 
d="M192 -36l9 32l-188 597h100l142 -493l118 493h101l-158 -577q-34 -125 -80.5 -172t-124.5 -47q-35 0 -66 10v89q21 -8 48 -8q40 0 63.5 16t35.5 60z" />
    <glyph glyph-name="z" unicode="z" horiz-adv-x="463" 
d="M421 512l-280 -427h289v-85h-400v81l280 427h-265v85h376v-81z" />
    <glyph glyph-name="braceleft" unicode="{" horiz-adv-x="383" 
d="M45 306v84h21q45 0 59 24.5t14 76.5v128q0 114 32.5 161.5t125.5 47.5q25 0 41 -2v-83q-3 0 -10.5 0.5t-12.5 0.5q-52 0 -68 -26.5t-16 -98.5v-140q0 -107 -63 -131q63 -24 63 -131v-139q0 -72 16 -99t68 -27q5 0 12.5 0.5t10.5 0.5v-82q-24 -3 -41 -3q-93 0 -125.5 47.5
t-32.5 161.5v128q0 52 -14 76.5t-59 24.5h-21z" />
    <glyph glyph-name="bar" unicode="|" horiz-adv-x="252" 
d="M173 826v-949h-94v949h94z" />
    <glyph glyph-name="braceright" unicode="}" horiz-adv-x="383" 
d="M338 390v-84h-21q-45 0 -59 -24.5t-14 -76.5v-128q0 -114 -32.5 -161.5t-125.5 -47.5q-17 0 -41 3v82q3 0 10 -0.5t13 -0.5q52 0 68 27t16 99v139q0 107 62 131q-62 24 -62 131v140q0 72 -16 98.5t-68 26.5q-6 0 -13 -0.5t-10 -0.5v83q16 2 41 2q93 0 125.5 -47.5
t32.5 -161.5v-128q0 -52 14 -76.5t59 -24.5h21z" />
    <glyph glyph-name="asciitilde" unicode="~" horiz-adv-x="570" 
d="M438 452h70q-2 -69 -34 -109.5t-82 -40.5q-40 0 -76 21t-66.5 42t-58.5 21q-26 0 -41.5 -22t-17.5 -56h-70q3 69 34.5 109t81.5 40q40 0 76 -21t66.5 -42t58.5 -21q26 0 42 22.5t17 56.5z" />
    <glyph glyph-name="exclamdown" unicode="&#xa1;" horiz-adv-x="231" 
d="M159 -176h-87l2 539h82zM70 486v100h91v-100h-91z" />
    <glyph glyph-name="cent" unicode="&#xa2;" horiz-adv-x="568" 
d="M402 193h89v-7q0 -89 -38.5 -136.5t-121.5 -57.5v-102h-85v101q-87 9 -127 62t-40 164v161q0 108 41 161t126 62v102h85v-101q82 -9 120 -56t38 -133v-10h-89v9q0 56 -25 83t-86 27q-65 0 -91.5 -32t-26.5 -111v-162q0 -79 25.5 -112.5t90.5 -33.5q63 0 89 28.5t26 85.5
v8z" />
    <glyph glyph-name="sterling" unicode="&#xa3;" horiz-adv-x="574" 
d="M346 774q89 0 142 -47t53 -146v-10h-87v10q0 113 -109 113q-59 0 -88 -32t-29 -120v-136h215v-82h-215v-242h322v-82h-509v83h97v241h-94v82h94v133q0 125 51.5 180t156.5 55z" />
    <glyph glyph-name="currency" unicode="&#xa4;" horiz-adv-x="514" 
d="M17 149l74 73q-19 40 -19 104v9q0 64 19 104l-74 74l56 58l70 -69q39 28 114 28t114 -28l70 69l56 -58l-75 -74q20 -38 20 -104v-9q0 -66 -20 -104l75 -73l-56 -58l-70 69q-41 -28 -114 -28q-75 0 -114 28l-70 -69zM151 335v-8q0 -72 24.5 -99.5t81.5 -27.5t81.5 27.5
t24.5 99.5v8q0 72 -24.5 99.5t-81.5 27.5t-81.5 -27.5t-24.5 -99.5z" />
    <glyph glyph-name="yen" unicode="&#xa5;" horiz-adv-x="596" 
d="M71 398h151l-175 364h106l147 -346l149 346h100l-175 -364h152v-77h-180v-64h180v-77h-180v-180h-95v180h-180v77h180v64h-180v77z" />
    <glyph glyph-name="brokenbar" unicode="&#xa6;" horiz-adv-x="252" 
d="M79 262h94v-385h-94v385zM173 441h-94v385h94v-385z" />
    <glyph glyph-name="section" unicode="&#xa7;" horiz-adv-x="524" 
d="M63 391q0 90 81 136q-73 37 -73 137q0 77 50.5 120.5t144.5 43.5q194 0 194 -170h-86q-2 50 -27 74t-83 24q-106 0 -106 -88q0 -48 25.5 -67t90.5 -33q44 -10 74.5 -20.5t61.5 -28.5t47 -47t16 -68q0 -99 -78 -141q70 -42 70 -135q0 -86 -53.5 -133t-154.5 -47
q-204 0 -204 179h88q0 -107 120 -107q113 0 113 102q0 53 -29.5 73t-101.5 35q-93 19 -136.5 51t-43.5 110zM266 305l55 -13q61 27 61 93q0 53 -29.5 73.5t-101.5 36.5l-28 6q-73 -31 -73 -96q0 -47 25.5 -66t90.5 -34z" />
    <glyph glyph-name="dieresis" unicode="&#xa8;" horiz-adv-x="500" 
d="M207 766v-86h-84v86h84zM377 766v-86h-84v86h84z" />
    <glyph glyph-name="copyright" unicode="&#xa9;" horiz-adv-x="774" 
d="M445 279h61q-2 -125 -125 -125q-67 0 -99.5 32t-32.5 108v104q0 76 32.5 108t99.5 32q123 0 125 -119h-61q-2 32 -16 46.5t-47 14.5q-40 0 -53.5 -17.5t-13.5 -67.5v-98q0 -50 13.5 -67.5t53.5 -17.5q34 0 47.5 15.5t15.5 51.5zM387 37q152 0 216 64.5t65 219.5v46
q0 157 -64 223t-217 66q-152 0 -216 -65t-66 -220v-45q0 -158 64 -223.5t218 -65.5zM387 -17q-176 0 -258 80t-82 263v45q1 180 83.5 259.5t256.5 79.5q175 0 257.5 -80.5t82.5 -262.5v-45q-1 -181 -83.5 -260t-256.5 -79z" />
    <glyph glyph-name="ordfeminine" unicode="&#xaa;" horiz-adv-x="406" 
d="M283 348l-3 40q-34 -49 -109 -49q-54 0 -86.5 30.5t-32.5 88.5q0 130 160 130q26 0 66 -4v43q0 45 -16.5 66t-54.5 21q-41 0 -60 -17.5t-19 -60.5h-62q0 72 34.5 105t107.5 33q68 0 102.5 -32.5t34.5 -106.5v-287h-62zM350 283v-64h-291v64h291zM278 487v38q-28 5 -61 5
q-52 0 -73 -15.5t-21 -50.5q0 -67 69 -67q37 0 61.5 23.5t24.5 66.5z" />
    <glyph glyph-name="guillemotleft" unicode="&#xab;" horiz-adv-x="521" 
d="M47 326l131 214h94l-131 -214l131 -215h-94zM228 326l131 214h93l-130 -214l130 -215h-93z" />
    <glyph glyph-name="logicalnot" unicode="&#xac;" horiz-adv-x="514" 
d="M452 451v-199h-83v122h-307v77h390z" />
    <glyph glyph-name="uni00AD" unicode="&#xad;" horiz-adv-x="361" 
d="M302 350v-77h-243v77h243z" />
    <glyph glyph-name="registered" unicode="&#xae;" horiz-adv-x="774" 
d="M387 -17q-176 0 -258 80t-82 263v45q1 180 83.5 259.5t256.5 79.5q175 0 257.5 -80.5t82.5 -262.5v-45q-1 -181 -83.5 -260t-256.5 -79zM387 37q152 0 216 64.5t65 219.5v46q0 157 -64 223t-217 66q-152 0 -216 -65t-66 -220v-45q0 -158 64 -223.5t218 -65.5zM280 162
v369h111q112 0 112 -107v-6q0 -77 -52 -96l63 -160h-66l-53 141h-57v-141h-58zM338 478v-121h43q38 0 51 12t13 46v4q0 36 -15.5 47.5t-51.5 11.5h-40z" />
    <glyph glyph-name="macron" unicode="&#xaf;" horiz-adv-x="500" 
d="M128 754h244v-71h-244v71z" />
    <glyph glyph-name="degree" unicode="&#xb0;" horiz-adv-x="319" 
d="M159 538q-59 0 -92.5 32t-33.5 82v12q0 51 33 82.5t93 31.5t93.5 -32t33.5 -82v-12q0 -52 -33 -83t-94 -31zM159 587q34 0 51.5 18t17.5 48v9q-2 67 -69 67q-33 0 -50.5 -18t-17.5 -49v-9q2 -66 68 -66z" />
    <glyph glyph-name="plusminus" unicode="&#xb1;" horiz-adv-x="514" 
d="M452 77v-77h-390v77h390zM452 437v-77h-154v-144h-83v144h-153v77h153v146h83v-146h154z" />
    <glyph glyph-name="twosuperior" unicode="&#xb2;" horiz-adv-x="356" 
d="M126 436v-5h167v-59h-233v56q0 40 12.5 68.5t31.5 43t41 27.5t41 23t31.5 28.5t12.5 44.5q0 57 -59 57t-59 -67h-58q0 121 122 121q56 0 86 -28.5t30 -80.5q0 -43 -17 -71t-41.5 -42.5t-49 -27t-41.5 -34t-17 -54.5z" />
    <glyph glyph-name="threesuperior" unicode="&#xb3;" horiz-adv-x="356" 
d="M293 672q0 -70 -51 -94q58 -21 58 -94q0 -56 -32.5 -87t-89.5 -31q-121 0 -121 113h57q0 -28 17 -44t47 -16q61 0 61 63q0 37 -19.5 51.5t-57.5 14.5h-41v53h47q35 0 50.5 18t15.5 46q0 56 -60 56q-58 0 -58 -60h-55q0 113 116 113q51 0 83.5 -25.5t32.5 -76.5z" />
    <glyph glyph-name="acute" unicode="&#xb4;" horiz-adv-x="500" 
d="M276 654h-81l85 133h98z" />
    <glyph glyph-name="mu" unicode="&#xb5;" horiz-adv-x="531" 
d="M150 32v-225h-92v786h92v-393q0 -131 113 -131q51 0 81 31t30 89v404h92v-593h-81l-4 47q-46 -59 -122 -59q-73 0 -109 44z" />
    <glyph glyph-name="paragraph" unicode="&#xb6;" horiz-adv-x="637" 
d="M267 279h-27q-99 0 -138 54.5t-39 159.5q0 109 41.5 162t155.5 53h87v-832h-80v403zM540 708v-832h-80v832h80z" />
    <glyph glyph-name="periodcentered" unicode="&#xb7;" horiz-adv-x="238" 
d="M166 345v-103h-95v103h95z" />
    <glyph glyph-name="cedilla" unicode="&#xb8;" horiz-adv-x="376" 
d="M218 0l-6 -35q93 -13 93 -97q0 -51 -33 -80t-94 -29q-62 0 -97 15l7 58q36 -13 77 -13q32 0 47 12t15 39q0 26 -18.5 37.5t-68.5 12.5l12 80h66z" />
    <glyph glyph-name="onesuperior" unicode="&#xb9;" horiz-adv-x="356" 
d="M77 425h78v270l-82 -34v64l91 37h57v-337h70v-59h-214v59z" />
    <glyph glyph-name="ordmasculine" unicode="&#xba;" horiz-adv-x="414" 
d="M129 613v-101q0 -65 15.5 -88t62.5 -23t63 23t16 88v89q0 65 -16 88.5t-63 23.5q-44 0 -61 -21.5t-17 -78.5zM59 501v112q0 87 35 124t113 37t113 -37t35 -124v-112q0 -87 -35.5 -124.5t-112.5 -37.5t-112.5 37.5t-35.5 124.5zM358 283v-64h-302v64h302z" />
    <glyph glyph-name="guillemotright" unicode="&#xbb;" horiz-adv-x="521" 
d="M474 325l-131 -214h-93l130 214l-130 215h93zM293 325l-131 -214h-93l130 214l-130 215h93z" />
    <glyph glyph-name="onequarter" unicode="&#xbc;" horiz-adv-x="744" 
d="M650 0h-63v95h-165v52l151 249h77v-245h42v-56h-42v-95zM595 762h67l-451 -762h-67zM77 425h78v270l-82 -34v64l91 37h57v-337h70v-59h-214v59zM484 151h103v167z" />
    <glyph glyph-name="onehalf" unicode="&#xbd;" horiz-adv-x="744" 
d="M576 762h67l-451 -762h-67zM77 425h78v270l-82 -34v64l91 37h57v-337h70v-59h-214v59zM511 64v-5h167v-59h-233v56q0 40 12.5 68.5t31.5 43t41 27.5t41 23t31.5 28.5t12.5 44.5q0 57 -59 57t-59 -67h-58q0 121 122 121q56 0 86 -28.5t30 -80.5q0 -43 -17 -71t-41.5 -42.5
t-49 -27t-41.5 -34t-17 -54.5z" />
    <glyph glyph-name="threequarters" unicode="&#xbe;" horiz-adv-x="744" 
d="M650 0h-63v95h-165v52l151 249h77v-245h42v-56h-42v-95zM593 762h67l-451 -762h-67zM298 672q0 -70 -51 -94q58 -21 58 -94q0 -56 -32.5 -87t-89.5 -31q-121 0 -121 113h57q0 -28 17 -44t47 -16q61 0 61 63q0 37 -19.5 51.5t-57.5 14.5h-41v53h47q35 0 50.5 18t15.5 46
q0 56 -60 56q-58 0 -58 -60h-55q0 113 116 113q51 0 83.5 -25.5t32.5 -76.5zM484 151h103v167z" />
    <glyph glyph-name="questiondown" unicode="&#xbf;" horiz-adv-x="495" 
d="M222 342v22h87v-20q0 -51 -10.5 -86.5t-27 -54.5t-37 -32t-40.5 -24t-36.5 -25t-27 -41t-10.5 -67q0 -71 34 -98.5t96 -27.5q64 0 96 38t32 105h82q0 -111 -57 -165t-158 -54q-217 0 -217 199q0 50 10.5 85.5t28 54.5t38 32.5t41 25t38 26t28 41.5t10.5 66zM220 486v100
h91v-100h-91z" />
    <glyph glyph-name="Agrave" unicode="&#xc0;" horiz-adv-x="601" 
d="M478 0l-59 214h-244l-58 -214h-98l224 762h115l224 -762h-104zM298 661l-99 -360h197zM351 829h-81l-102 133h98z" />
    <glyph glyph-name="Aacute" unicode="&#xc1;" horiz-adv-x="601" 
d="M478 0l-59 214h-244l-58 -214h-98l224 762h115l224 -762h-104zM298 661l-99 -360h197zM326 829h-81l85 133h98z" />
    <glyph glyph-name="Acircumflex" unicode="&#xc2;" horiz-adv-x="601" 
d="M478 0l-59 214h-244l-58 -214h-98l224 762h115l224 -762h-104zM298 661l-99 -360h197zM371 829l-71 70l-71 -70h-93l131 126h66l131 -126h-93z" />
    <glyph glyph-name="Atilde" unicode="&#xc3;" horiz-adv-x="601" 
d="M478 0l-59 214h-244l-58 -214h-98l224 762h115l224 -762h-104zM298 661l-99 -360h197zM398 944h64q-12 -112 -91 -112q-36 0 -74 24q-37 23 -57 23q-27 0 -36 -47h-64q12 112 91 112q36 0 74 -24q37 -23 57 -23q27 0 36 47z" />
    <glyph glyph-name="Adieresis" unicode="&#xc4;" horiz-adv-x="601" 
d="M478 0l-59 214h-244l-58 -214h-98l224 762h115l224 -762h-104zM298 661l-99 -360h197zM253 941v-86h-84v86h84zM423 941v-86h-84v86h84z" />
    <glyph glyph-name="Aring" unicode="&#xc5;" horiz-adv-x="601" 
d="M478 0l-59 214h-244l-58 -214h-98l224 762h115l224 -762h-104zM298 661l-99 -360h197zM415 928q0 -53 -29.5 -81.5t-85.5 -28.5t-85.5 28.5t-29.5 81.5q0 54 29.5 82.5t85.5 28.5t85.5 -28.5t29.5 -82.5zM360 928q0 31 -13.5 46.5t-46.5 15.5t-46.5 -15.5t-13.5 -46.5
q0 -30 13.5 -45.5t46.5 -15.5t46.5 15.5t13.5 45.5z" />
    <glyph glyph-name="AE" unicode="&#xc6;" horiz-adv-x="866" 
d="M820 0h-403v214h-211l-97 -214h-104l362 762h443v-84h-298v-245h261v-84h-261v-265h308v-84zM417 676l-171 -375h171v375z" />
    <glyph glyph-name="Ccedilla" unicode="&#xc7;" horiz-adv-x="577" 
d="M433 231h99v-13q-2 -115 -55.5 -172.5t-172.5 -57.5q-131 0 -185 66.5t-54 203.5v243q0 138 54.5 205.5t184.5 67.5q227 0 227 -229v-9h-100v11q0 138 -127 138q-84 0 -112 -45t-28 -139v-239q0 -97 27 -141t113 -44q69 0 97.5 32.5t31.5 107.5v14zM329 0l-6 -35
q93 -13 93 -97q0 -51 -33 -80t-94 -29q-62 0 -97 15l7 58q36 -13 77 -13q32 0 47 12t15 39q0 26 -18.5 37.5t-68.5 12.5l12 80h66z" />
    <glyph glyph-name="Egrave" unicode="&#xc8;" horiz-adv-x="530" 
d="M171 678v-245h261v-84h-261v-265h308v-84h-403v762h393v-84h-298zM322 829h-81l-102 133h98z" />
    <glyph glyph-name="Eacute" unicode="&#xc9;" horiz-adv-x="530" 
d="M171 678v-245h261v-84h-261v-265h308v-84h-403v762h393v-84h-298zM297 829h-81l85 133h98z" />
    <glyph glyph-name="Ecircumflex" unicode="&#xca;" horiz-adv-x="530" 
d="M171 678v-245h261v-84h-261v-265h308v-84h-403v762h393v-84h-298zM342 829l-71 70l-71 -70h-93l131 126h66l131 -126h-93z" />
    <glyph glyph-name="Edieresis" unicode="&#xcb;" horiz-adv-x="530" 
d="M171 678v-245h261v-84h-261v-265h308v-84h-403v762h393v-84h-298zM228 941v-86h-84v86h84zM398 941v-86h-84v86h84z" />
    <glyph glyph-name="Igrave" unicode="&#xcc;" horiz-adv-x="247" 
d="M171 762v-762h-95v762h95zM174 829h-81l-102 133h98z" />
    <glyph glyph-name="Iacute" unicode="&#xcd;" horiz-adv-x="247" 
d="M171 762v-762h-95v762h95zM149 829h-81l85 133h98z" />
    <glyph glyph-name="Icircumflex" unicode="&#xce;" horiz-adv-x="247" 
d="M171 762v-762h-95v762h95zM194 829l-71 70l-71 -70h-93l131 126h66l131 -126h-93z" />
    <glyph glyph-name="Idieresis" unicode="&#xcf;" horiz-adv-x="247" 
d="M171 762v-762h-95v762h95zM80 941v-86h-84v86h84zM250 941v-86h-84v86h84z" />
    <glyph glyph-name="Eth" unicode="&#xd0;" horiz-adv-x="614" 
d="M92 0v339h-77v84h77v339h201q140 0 198 -66.5t58 -211.5v-212q0 -141 -58.5 -206.5t-198.5 -65.5h-200zM302 339h-115v-255h106q91 0 124 42.5t33 140.5v222q0 103 -33 146t-126 43h-104v-255h115v-84z" />
    <glyph glyph-name="Ntilde" unicode="&#xd1;" horiz-adv-x="615" 
d="M74 762h101l273 -586v586h94v-762h-99l-275 578v-578h-94v762zM407 944h64q-12 -112 -91 -112q-36 0 -74 24q-37 23 -57 23q-27 0 -36 -47h-64q12 112 91 112q36 0 74 -24q37 -23 57 -23q27 0 36 47z" />
    <glyph glyph-name="Ograve" unicode="&#xd2;" horiz-adv-x="620" 
d="M164 509v-256q0 -94 30.5 -136.5t115.5 -42.5q86 0 116 42.5t30 136.5v256q0 94 -30.5 136.5t-115.5 42.5t-115.5 -42.5t-30.5 -136.5zM310 774q132 0 188.5 -65t56.5 -202v-252q0 -137 -56.5 -202t-188.5 -65t-188.5 65t-56.5 202v252q0 137 56.5 202t188.5 65zM361 829
h-81l-102 133h98z" />
    <glyph glyph-name="Oacute" unicode="&#xd3;" horiz-adv-x="620" 
d="M164 509v-256q0 -94 30.5 -136.5t115.5 -42.5q86 0 116 42.5t30 136.5v256q0 94 -30.5 136.5t-115.5 42.5t-115.5 -42.5t-30.5 -136.5zM310 774q132 0 188.5 -65t56.5 -202v-252q0 -137 -56.5 -202t-188.5 -65t-188.5 65t-56.5 202v252q0 137 56.5 202t188.5 65zM336 829
h-81l85 133h98z" />
    <glyph glyph-name="Ocircumflex" unicode="&#xd4;" horiz-adv-x="620" 
d="M164 509v-256q0 -94 30.5 -136.5t115.5 -42.5q86 0 116 42.5t30 136.5v256q0 94 -30.5 136.5t-115.5 42.5t-115.5 -42.5t-30.5 -136.5zM310 774q132 0 188.5 -65t56.5 -202v-252q0 -137 -56.5 -202t-188.5 -65t-188.5 65t-56.5 202v252q0 137 56.5 202t188.5 65zM381 829
l-71 70l-71 -70h-93l131 126h66l131 -126h-93z" />
    <glyph glyph-name="Otilde" unicode="&#xd5;" horiz-adv-x="620" 
d="M164 509v-256q0 -94 30.5 -136.5t115.5 -42.5q86 0 116 42.5t30 136.5v256q0 94 -30.5 136.5t-115.5 42.5t-115.5 -42.5t-30.5 -136.5zM310 774q132 0 188.5 -65t56.5 -202v-252q0 -137 -56.5 -202t-188.5 -65t-188.5 65t-56.5 202v252q0 137 56.5 202t188.5 65zM408 944
h64q-12 -112 -91 -112q-36 0 -74 24q-37 23 -57 23q-27 0 -36 -47h-64q12 112 91 112q36 0 74 -24q37 -23 57 -23q27 0 36 47z" />
    <glyph glyph-name="Odieresis" unicode="&#xd6;" horiz-adv-x="620" 
d="M164 509v-256q0 -94 30.5 -136.5t115.5 -42.5q86 0 116 42.5t30 136.5v256q0 94 -30.5 136.5t-115.5 42.5t-115.5 -42.5t-30.5 -136.5zM310 774q132 0 188.5 -65t56.5 -202v-252q0 -137 -56.5 -202t-188.5 -65t-188.5 65t-56.5 202v252q0 137 56.5 202t188.5 65zM267 941
v-86h-84v86h84zM437 941v-86h-84v86h84z" />
    <glyph glyph-name="multiply" unicode="&#xd7;" horiz-adv-x="514" 
d="M142 533l114 -114l114 115l58 -53l-116 -117l115 -114l-60 -57l-114 113l-115 -116l-55 55l115 115l-115 116z" />
    <glyph glyph-name="Oslash" unicode="&#xd8;" horiz-adv-x="620" 
d="M310 774q89 0 143 -30l38 74h83l-64 -124q45 -62 45 -187v-252q0 -137 -56.5 -202t-188.5 -65q-88 0 -144 30l-37 -74h-83l63 124q-44 62 -44 187v252q0 137 56.5 202t188.5 65zM456 509q0 43 -5 69l-242 -476q32 -28 101 -28q86 0 116 42.5t30 136.5v256zM164 509v-256
q0 -41 4 -68l242 475q-34 28 -100 28q-85 0 -115.5 -42.5t-30.5 -136.5z" />
    <glyph glyph-name="Ugrave" unicode="&#xd9;" horiz-adv-x="613" 
d="M450 762h95v-496q0 -141 -53 -209.5t-186 -68.5q-134 0 -186.5 68t-52.5 210v496h96v-502q0 -97 29.5 -141t113.5 -44q85 0 114.5 44t29.5 141v502zM357 829h-81l-102 133h98z" />
    <glyph glyph-name="Uacute" unicode="&#xda;" horiz-adv-x="613" 
d="M450 762h95v-496q0 -141 -53 -209.5t-186 -68.5q-134 0 -186.5 68t-52.5 210v496h96v-502q0 -97 29.5 -141t113.5 -44q85 0 114.5 44t29.5 141v502zM332 829h-81l85 133h98z" />
    <glyph glyph-name="Ucircumflex" unicode="&#xdb;" horiz-adv-x="613" 
d="M450 762h95v-496q0 -141 -53 -209.5t-186 -68.5q-134 0 -186.5 68t-52.5 210v496h96v-502q0 -97 29.5 -141t113.5 -44q85 0 114.5 44t29.5 141v502zM377 829l-71 70l-71 -70h-93l131 126h66l131 -126h-93z" />
    <glyph glyph-name="Udieresis" unicode="&#xdc;" horiz-adv-x="613" 
d="M450 762h95v-496q0 -141 -53 -209.5t-186 -68.5q-134 0 -186.5 68t-52.5 210v496h96v-502q0 -97 29.5 -141t113.5 -44q85 0 114.5 44t29.5 141v502zM263 941v-86h-84v86h84zM433 941v-86h-84v86h84z" />
    <glyph glyph-name="Yacute" unicode="&#xdd;" horiz-adv-x="570" 
d="M237 0v330l-229 432h105l174 -355l175 355h100l-230 -433v-329h-95zM311 829h-81l85 133h98z" />
    <glyph glyph-name="Thorn" unicode="&#xde;" horiz-adv-x="535" 
d="M281 161h-112v-161h-95v762h95v-147h106q115 0 172 -48.5t57 -166.5v-26q0 -116 -52.5 -164.5t-170.5 -48.5zM169 530v-284h113q74 0 101 27.5t27 100.5v25q0 77 -32 104t-104 27h-105z" />
    <glyph glyph-name="germandbls" unicode="&#xdf;" 
d="M468 578q0 -136 -96 -176q131 -32 131 -192q0 -209 -220 -210h-58v82h56q130 0 130 130q0 78 -39.5 109.5t-115.5 31.5h-31v81h25q70 0 101.5 38.5t31.5 98.5q0 66 -29.5 95t-85.5 29q-113 0 -113 -138v-557h-90v556q0 111 53 165.5t151 54.5q95 0 147 -49.5t52 -148.5z
" />
    <glyph glyph-name="agrave" unicode="&#xe0;" horiz-adv-x="524" 
d="M380 0l-3 55q-46 -67 -151 -67q-82 0 -128 42.5t-46 124.5q0 94 54 138t172 44q47 0 96 -7v73q0 66 -26 96t-82 30q-57 0 -84.5 -26.5t-27.5 -91.5h-84q0 100 49 147t151 47q95 0 143.5 -45.5t48.5 -151.5v-408h-82zM374 196v64q-47 7 -93 7q-74 0 -105.5 -25t-31.5 -79
q0 -99 102 -99q54 0 91 34.5t37 97.5zM320 674h-81l-102 133h98z" />
    <glyph glyph-name="aacute" unicode="&#xe1;" horiz-adv-x="524" 
d="M380 0l-3 55q-46 -67 -151 -67q-82 0 -128 42.5t-46 124.5q0 94 54 138t172 44q47 0 96 -7v73q0 66 -26 96t-82 30q-57 0 -84.5 -26.5t-27.5 -91.5h-84q0 100 49 147t151 47q95 0 143.5 -45.5t48.5 -151.5v-408h-82zM374 196v64q-47 7 -93 7q-74 0 -105.5 -25t-31.5 -79
q0 -99 102 -99q54 0 91 34.5t37 97.5zM295 674h-81l85 133h98z" />
    <glyph glyph-name="acircumflex" unicode="&#xe2;" horiz-adv-x="524" 
d="M380 0l-3 55q-46 -67 -151 -67q-82 0 -128 42.5t-46 124.5q0 94 54 138t172 44q47 0 96 -7v73q0 66 -26 96t-82 30q-57 0 -84.5 -26.5t-27.5 -91.5h-84q0 100 49 147t151 47q95 0 143.5 -45.5t48.5 -151.5v-408h-82zM374 196v64q-47 7 -93 7q-74 0 -105.5 -25t-31.5 -79
q0 -99 102 -99q54 0 91 34.5t37 97.5zM340 674l-71 70l-71 -70h-93l131 126h66l131 -126h-93z" />
    <glyph glyph-name="atilde" unicode="&#xe3;" horiz-adv-x="524" 
d="M380 0l-3 55q-46 -67 -151 -67q-82 0 -128 42.5t-46 124.5q0 94 54 138t172 44q47 0 96 -7v73q0 66 -26 96t-82 30q-57 0 -84.5 -26.5t-27.5 -91.5h-84q0 100 49 147t151 47q95 0 143.5 -45.5t48.5 -151.5v-408h-82zM374 196v64q-47 7 -93 7q-74 0 -105.5 -25t-31.5 -79
q0 -99 102 -99q54 0 91 34.5t37 97.5zM367 789h64q-12 -112 -91 -112q-36 0 -74 24q-37 23 -57 23q-27 0 -36 -47h-64q12 112 91 112q36 0 74 -24q37 -23 57 -23q27 0 36 47z" />
    <glyph glyph-name="adieresis" unicode="&#xe4;" horiz-adv-x="524" 
d="M380 0l-3 55q-46 -67 -151 -67q-82 0 -128 42.5t-46 124.5q0 94 54 138t172 44q47 0 96 -7v73q0 66 -26 96t-82 30q-57 0 -84.5 -26.5t-27.5 -91.5h-84q0 100 49 147t151 47q95 0 143.5 -45.5t48.5 -151.5v-408h-82zM374 196v64q-47 7 -93 7q-74 0 -105.5 -25t-31.5 -79
q0 -99 102 -99q54 0 91 34.5t37 97.5zM226 786v-86h-84v86h84zM396 786v-86h-84v86h84z" />
    <glyph glyph-name="aring" unicode="&#xe5;" horiz-adv-x="524" 
d="M380 0l-3 55q-46 -67 -151 -67q-82 0 -128 42.5t-46 124.5q0 94 54 138t172 44q47 0 96 -7v73q0 66 -26 96t-82 30q-57 0 -84.5 -26.5t-27.5 -91.5h-84q0 100 49 147t151 47q95 0 143.5 -45.5t48.5 -151.5v-408h-82zM374 196v64q-47 7 -93 7q-74 0 -105.5 -25t-31.5 -79
q0 -99 102 -99q54 0 91 34.5t37 97.5zM384 773q0 -53 -29.5 -81.5t-85.5 -28.5t-85.5 28.5t-29.5 81.5q0 54 29.5 82.5t85.5 28.5t85.5 -28.5t29.5 -82.5zM329 773q0 31 -13.5 46.5t-46.5 15.5t-46.5 -15.5t-13.5 -46.5q0 -30 13.5 -45.5t46.5 -15.5t46.5 15.5t13.5 45.5z
" />
    <glyph glyph-name="ae" unicode="&#xe6;" horiz-adv-x="820" 
d="M264 605q105 0 153 -71q54 71 159 71q101 0 149.5 -53.5t48.5 -167.5v-110h-318v-66q0 -76 26 -108.5t90 -32.5q59 0 84 23.5t27 75.5h86q-2 -90 -48.5 -134t-147.5 -44q-138 0 -182 87q-43 -87 -163 -87q-88 0 -135 42t-47 125q0 94 54 138t172 44q47 0 96 -7v73
q0 66 -26 96t-82 30q-57 0 -84.5 -26.5t-27.5 -91.5h-84q0 100 49 147t151 47zM368 196v64q-47 7 -93 7q-74 0 -105.5 -25t-31.5 -79q0 -99 102 -99q54 0 91 34.5t37 97.5zM572 525q-64 0 -90 -34.5t-26 -115.5v-28h230v33q0 76 -25.5 110.5t-88.5 34.5z" />
    <glyph glyph-name="ccedilla" unicode="&#xe7;" horiz-adv-x="514" 
d="M378 193h89v-7q0 -99 -49 -148.5t-156 -49.5t-157 54t-50 175v161q0 120 51.5 173.5t158.5 53.5q104 0 152 -47.5t48 -144.5v-10h-89v9q0 56 -25 83.5t-86 27.5q-65 0 -91.5 -32.5t-26.5 -111.5v-162q0 -79 25.5 -113.5t90.5 -34.5q63 0 89 29t26 87v8zM291 0l-6 -35
q93 -13 93 -97q0 -51 -33 -80t-94 -29q-62 0 -97 15l7 58q36 -13 77 -13q32 0 47 12t15 39q0 26 -18.5 37.5t-68.5 12.5l12 80h66z" />
    <glyph glyph-name="egrave" unicode="&#xe8;" horiz-adv-x="516" 
d="M373 166h86q-2 -90 -48.5 -134t-147.5 -44q-108 0 -158 53t-50 174v164q0 115 51 170.5t155 55.5q105 0 154 -53.5t49 -167.5v-110h-318v-66q0 -76 26 -108.5t90 -32.5q59 0 84 23.5t27 75.5zM262 525q-64 0 -90 -34.5t-26 -115.5v-28h230v33q0 76 -25.5 110.5
t-88.5 34.5zM310 674h-81l-102 133h98z" />
    <glyph glyph-name="eacute" unicode="&#xe9;" horiz-adv-x="516" 
d="M373 166h86q-2 -90 -48.5 -134t-147.5 -44q-108 0 -158 53t-50 174v164q0 115 51 170.5t155 55.5q105 0 154 -53.5t49 -167.5v-110h-318v-66q0 -76 26 -108.5t90 -32.5q59 0 84 23.5t27 75.5zM262 525q-64 0 -90 -34.5t-26 -115.5v-28h230v33q0 76 -25.5 110.5
t-88.5 34.5zM285 674h-81l85 133h98z" />
    <glyph glyph-name="ecircumflex" unicode="&#xea;" horiz-adv-x="516" 
d="M373 166h86q-2 -90 -48.5 -134t-147.5 -44q-108 0 -158 53t-50 174v164q0 115 51 170.5t155 55.5q105 0 154 -53.5t49 -167.5v-110h-318v-66q0 -76 26 -108.5t90 -32.5q59 0 84 23.5t27 75.5zM262 525q-64 0 -90 -34.5t-26 -115.5v-28h230v33q0 76 -25.5 110.5
t-88.5 34.5zM330 674l-71 70l-71 -70h-93l131 126h66l131 -126h-93z" />
    <glyph glyph-name="edieresis" unicode="&#xeb;" horiz-adv-x="516" 
d="M373 166h86q-2 -90 -48.5 -134t-147.5 -44q-108 0 -158 53t-50 174v164q0 115 51 170.5t155 55.5q105 0 154 -53.5t49 -167.5v-110h-318v-66q0 -76 26 -108.5t90 -32.5q59 0 84 23.5t27 75.5zM262 525q-64 0 -90 -34.5t-26 -115.5v-28h230v33q0 76 -25.5 110.5
t-88.5 34.5zM216 786v-86h-84v86h84zM386 786v-86h-84v86h84z" />
    <glyph glyph-name="igrave" unicode="&#xec;" horiz-adv-x="234" 
d="M163 593v-593h-92v593h92zM168 674h-81l-102 133h98z" />
    <glyph glyph-name="iacute" unicode="&#xed;" horiz-adv-x="234" 
d="M163 593v-593h-92v593h92zM143 674h-81l85 133h98z" />
    <glyph glyph-name="icircumflex" unicode="&#xee;" horiz-adv-x="234" 
d="M163 593v-593h-92v593h92zM188 674l-71 70l-71 -70h-93l131 126h66l131 -126h-93z" />
    <glyph glyph-name="idieresis" unicode="&#xef;" horiz-adv-x="234" 
d="M163 593v-593h-92v593h92zM74 786v-86h-84v86h84zM244 786v-86h-84v86h84z" />
    <glyph glyph-name="eth" unicode="&#xf0;" horiz-adv-x="514" 
d="M464 361v-141q0 -123 -50 -177.5t-157 -54.5q-104 0 -156 53t-52 175v86q0 115 51 169.5t135 54.5q88 0 132 -61q-18 113 -105 188l-112 -75l-28 33l100 65q-41 29 -100 50l33 65q74 -24 130 -63l98 64l29 -34l-87 -56q138 -118 139 -341zM372 217v102q0 130 -117 130
q-57 0 -85.5 -34.5t-28.5 -113.5v-84q0 -83 27 -115.5t89 -32.5q64 0 89.5 35.5t25.5 112.5z" />
    <glyph glyph-name="ntilde" unicode="&#xf1;" horiz-adv-x="547" 
d="M71 593h80l5 -45q45 57 141 57q100 0 142.5 -52.5t42.5 -160.5v-392h-92v384q0 75 -24.5 107.5t-87.5 32.5q-53 0 -84 -30.5t-31 -89.5v-404h-92v593zM376 789h64q-12 -112 -91 -112q-36 0 -74 24q-37 23 -57 23q-27 0 -36 -47h-64q12 112 91 112q36 0 74 -24
q37 -23 57 -23q27 0 36 47z" />
    <glyph glyph-name="ograve" unicode="&#xf2;" horiz-adv-x="526" 
d="M147 376v-159q0 -85 25 -116.5t91 -31.5q65 0 90 31.5t25 116.5v159q0 85 -25 116.5t-90 31.5q-66 0 -91 -31.5t-25 -116.5zM263 605q109 0 158.5 -52.5t49.5 -175.5v-161q0 -123 -49.5 -175.5t-158.5 -52.5t-158.5 52.5t-49.5 175.5v161q0 123 49.5 175.5t158.5 52.5z
M314 674h-81l-102 133h98z" />
    <glyph glyph-name="oacute" unicode="&#xf3;" horiz-adv-x="526" 
d="M147 376v-159q0 -85 25 -116.5t91 -31.5q65 0 90 31.5t25 116.5v159q0 85 -25 116.5t-90 31.5q-66 0 -91 -31.5t-25 -116.5zM263 605q109 0 158.5 -52.5t49.5 -175.5v-161q0 -123 -49.5 -175.5t-158.5 -52.5t-158.5 52.5t-49.5 175.5v161q0 123 49.5 175.5t158.5 52.5z
M289 674h-81l85 133h98z" />
    <glyph glyph-name="ocircumflex" unicode="&#xf4;" horiz-adv-x="526" 
d="M147 376v-159q0 -85 25 -116.5t91 -31.5q65 0 90 31.5t25 116.5v159q0 85 -25 116.5t-90 31.5q-66 0 -91 -31.5t-25 -116.5zM263 605q109 0 158.5 -52.5t49.5 -175.5v-161q0 -123 -49.5 -175.5t-158.5 -52.5t-158.5 52.5t-49.5 175.5v161q0 123 49.5 175.5t158.5 52.5z
M334 674l-71 70l-71 -70h-93l131 126h66l131 -126h-93z" />
    <glyph glyph-name="otilde" unicode="&#xf5;" horiz-adv-x="526" 
d="M147 376v-159q0 -85 25 -116.5t91 -31.5q65 0 90 31.5t25 116.5v159q0 85 -25 116.5t-90 31.5q-66 0 -91 -31.5t-25 -116.5zM263 605q109 0 158.5 -52.5t49.5 -175.5v-161q0 -123 -49.5 -175.5t-158.5 -52.5t-158.5 52.5t-49.5 175.5v161q0 123 49.5 175.5t158.5 52.5z
M361 789h64q-12 -112 -91 -112q-36 0 -74 24q-37 23 -57 23q-27 0 -36 -47h-64q12 112 91 112q36 0 74 -24q37 -23 57 -23q27 0 36 47z" />
    <glyph glyph-name="odieresis" unicode="&#xf6;" horiz-adv-x="526" 
d="M147 376v-159q0 -85 25 -116.5t91 -31.5q65 0 90 31.5t25 116.5v159q0 85 -25 116.5t-90 31.5q-66 0 -91 -31.5t-25 -116.5zM263 605q109 0 158.5 -52.5t49.5 -175.5v-161q0 -123 -49.5 -175.5t-158.5 -52.5t-158.5 52.5t-49.5 175.5v161q0 123 49.5 175.5t158.5 52.5z
M220 786v-86h-84v86h84zM390 786v-86h-84v86h84z" />
    <glyph glyph-name="divide" unicode="&#xf7;" horiz-adv-x="514" 
d="M297 586v-75h-80v75h80zM448 417v-77h-382v77h382zM297 247v-75h-80v75h80z" />
    <glyph glyph-name="oslash" unicode="&#xf8;" horiz-adv-x="526" 
d="M263 605q65 0 108 -18l31 62h78l-53 -104q44 -53 44 -168v-161q0 -123 -49.5 -175.5t-158.5 -52.5q-63 0 -108 17l-31 -61h-78l52 103q-43 55 -43 169v161q0 123 49.5 175.5t158.5 52.5zM147 376v-159q0 -41 4 -65l181 358q-24 14 -69 14q-66 0 -91 -31.5t-25 -116.5z
M378 376q0 39 -4 63l-181 -357q23 -13 70 -13q65 0 90 31.5t25 116.5v159z" />
    <glyph glyph-name="ugrave" unicode="&#xf9;" horiz-adv-x="543" 
d="M472 0h-80l-6 45q-45 -57 -146 -57q-97 0 -136.5 52t-39.5 161v392h92v-384q0 -75 23.5 -107.5t86.5 -32.5q53 0 83.5 30.5t30.5 89.5v404h92v-593zM318 674h-81l-102 133h98z" />
    <glyph glyph-name="uacute" unicode="&#xfa;" horiz-adv-x="543" 
d="M472 0h-80l-6 45q-45 -57 -146 -57q-97 0 -136.5 52t-39.5 161v392h92v-384q0 -75 23.5 -107.5t86.5 -32.5q53 0 83.5 30.5t30.5 89.5v404h92v-593zM293 674h-81l85 133h98z" />
    <glyph glyph-name="ucircumflex" unicode="&#xfb;" horiz-adv-x="543" 
d="M472 0h-80l-6 45q-45 -57 -146 -57q-97 0 -136.5 52t-39.5 161v392h92v-384q0 -75 23.5 -107.5t86.5 -32.5q53 0 83.5 30.5t30.5 89.5v404h92v-593zM338 674l-71 70l-71 -70h-93l131 126h66l131 -126h-93z" />
    <glyph glyph-name="udieresis" unicode="&#xfc;" horiz-adv-x="543" 
d="M472 0h-80l-6 45q-45 -57 -146 -57q-97 0 -136.5 52t-39.5 161v392h92v-384q0 -75 23.5 -107.5t86.5 -32.5q53 0 83.5 30.5t30.5 89.5v404h92v-593zM224 786v-86h-84v86h84zM394 786v-86h-84v86h84z" />
    <glyph glyph-name="yacute" unicode="&#xfd;" horiz-adv-x="489" 
d="M192 -36l9 32l-188 597h100l142 -493l118 493h101l-158 -577q-34 -125 -80.5 -172t-124.5 -47q-35 0 -66 10v89q21 -8 48 -8q40 0 63.5 16t35.5 60zM264 674h-81l85 133h98z" />
    <glyph glyph-name="thorn" unicode="&#xfe;" 
d="M306 605q180 0 180 -229v-164q0 -115 -51 -169.5t-135 -54.5q-99 0 -137 63v-244h-92v965h92v-235q46 68 143 68zM163 405v-206q0 -130 117 -130q56 0 84.5 34.5t28.5 113.5v161q0 75 -27 110.5t-86 35.5q-55 0 -86 -30t-31 -89z" />
    <glyph glyph-name="ydieresis" unicode="&#xff;" horiz-adv-x="489" 
d="M192 -36l9 32l-188 597h100l142 -493l118 493h101l-158 -577q-34 -125 -80.5 -172t-124.5 -47q-35 0 -66 10v89q21 -8 48 -8q40 0 63.5 16t35.5 60zM195 786v-86h-84v86h84zM365 786v-86h-84v86h84z" />
    <glyph glyph-name="Amacron" unicode="&#x100;" horiz-adv-x="601" 
d="M478 0l-59 214h-244l-58 -214h-98l224 762h115l224 -762h-104zM298 661l-99 -360h197zM177 929h244v-71h-244v71z" />
    <glyph glyph-name="amacron" unicode="&#x101;" horiz-adv-x="524" 
d="M380 0l-3 55q-46 -67 -151 -67q-82 0 -128 42.5t-46 124.5q0 94 54 138t172 44q47 0 96 -7v73q0 66 -26 96t-82 30q-57 0 -84.5 -26.5t-27.5 -91.5h-84q0 100 49 147t151 47q95 0 143.5 -45.5t48.5 -151.5v-408h-82zM374 196v64q-47 7 -93 7q-74 0 -105.5 -25t-31.5 -79
q0 -99 102 -99q54 0 91 34.5t37 97.5zM145 774h244v-71h-244v71z" />
    <glyph glyph-name="Abreve" unicode="&#x102;" horiz-adv-x="601" 
d="M478 0l-59 214h-244l-58 -214h-98l224 762h115l224 -762h-104zM298 661l-99 -360h197zM300 826q-136 0 -139 127h68q2 -38 18 -52.5t53 -14.5t53 14.5t18 52.5h68q-3 -127 -139 -127z" />
    <glyph glyph-name="abreve" unicode="&#x103;" horiz-adv-x="524" 
d="M380 0l-3 55q-46 -67 -151 -67q-82 0 -128 42.5t-46 124.5q0 94 54 138t172 44q47 0 96 -7v73q0 66 -26 96t-82 30q-57 0 -84.5 -26.5t-27.5 -91.5h-84q0 100 49 147t151 47q95 0 143.5 -45.5t48.5 -151.5v-408h-82zM374 196v64q-47 7 -93 7q-74 0 -105.5 -25t-31.5 -79
q0 -99 102 -99q54 0 91 34.5t37 97.5zM269 671q-136 0 -139 127h68q2 -38 18 -52.5t53 -14.5t53 14.5t18 52.5h68q-3 -127 -139 -127z" />
    <glyph glyph-name="Aogonek" unicode="&#x104;" horiz-adv-x="601" 
d="M478 0l-59 214h-244l-58 -214h-98l224 762h115l224 -762h-104zM298 661l-99 -360h197zM577 -143l2 -62q-31 -7 -74 -7q-114 0 -114 84q0 87 130 141l61 -13q-27 -16 -42.5 -26t-34 -25.5t-27 -31t-8.5 -32.5q0 -35 57 -35q24 0 50 7z" />
    <glyph glyph-name="aogonek" unicode="&#x105;" horiz-adv-x="524" 
d="M380 0l-3 55q-46 -67 -151 -67q-82 0 -128 42.5t-46 124.5q0 94 54 138t172 44q47 0 96 -7v73q0 66 -26 96t-82 30q-57 0 -84.5 -26.5t-27.5 -91.5h-84q0 100 49 147t151 47q95 0 143.5 -45.5t48.5 -151.5v-408h-82zM374 196v64q-47 7 -93 7q-74 0 -105.5 -25t-31.5 -79
q0 -99 102 -99q54 0 91 34.5t37 97.5zM457 -143l2 -62q-31 -7 -74 -7q-114 0 -114 84q0 87 130 141l61 -13q-27 -16 -42.5 -26t-34 -25.5t-27 -31t-8.5 -32.5q0 -35 57 -35q24 0 50 7z" />
    <glyph glyph-name="Cacute" unicode="&#x106;" horiz-adv-x="577" 
d="M433 231h99v-13q-2 -115 -55.5 -172.5t-172.5 -57.5q-131 0 -185 66.5t-54 203.5v243q0 138 54.5 205.5t184.5 67.5q227 0 227 -229v-9h-100v11q0 138 -127 138q-84 0 -112 -45t-28 -139v-239q0 -97 27 -141t113 -44q69 0 97.5 32.5t31.5 107.5v14zM324 829h-81l85 133
h98z" />
    <glyph glyph-name="cacute" unicode="&#x107;" horiz-adv-x="514" 
d="M378 193h89v-7q0 -99 -49 -148.5t-156 -49.5t-157 54t-50 175v161q0 120 51.5 173.5t158.5 53.5q104 0 152 -47.5t48 -144.5v-10h-89v9q0 56 -25 83.5t-86 27.5q-65 0 -91.5 -32.5t-26.5 -111.5v-162q0 -79 25.5 -113.5t90.5 -34.5q63 0 89 29t26 87v8zM287 674h-81
l85 133h98z" />
    <glyph glyph-name="Ccircumflex" unicode="&#x108;" horiz-adv-x="577" 
d="M433 231h99v-13q-2 -115 -55.5 -172.5t-172.5 -57.5q-131 0 -185 66.5t-54 203.5v243q0 138 54.5 205.5t184.5 67.5q227 0 227 -229v-9h-100v11q0 138 -127 138q-84 0 -112 -45t-28 -139v-239q0 -97 27 -141t113 -44q69 0 97.5 32.5t31.5 107.5v14zM369 829l-71 70
l-71 -70h-93l131 126h66l131 -126h-93z" />
    <glyph glyph-name="ccircumflex" unicode="&#x109;" horiz-adv-x="514" 
d="M378 193h89v-7q0 -99 -49 -148.5t-156 -49.5t-157 54t-50 175v161q0 120 51.5 173.5t158.5 53.5q104 0 152 -47.5t48 -144.5v-10h-89v9q0 56 -25 83.5t-86 27.5q-65 0 -91.5 -32.5t-26.5 -111.5v-162q0 -79 25.5 -113.5t90.5 -34.5q63 0 89 29t26 87v8zM332 674l-71 70
l-71 -70h-93l131 126h66l131 -126h-93z" />
    <glyph glyph-name="Cdotaccent" unicode="&#x10a;" horiz-adv-x="577" 
d="M433 231h99v-13q-2 -115 -55.5 -172.5t-172.5 -57.5q-131 0 -185 66.5t-54 203.5v243q0 138 54.5 205.5t184.5 67.5q227 0 227 -229v-9h-100v11q0 138 -127 138q-84 0 -112 -45t-28 -139v-239q0 -97 27 -141t113 -44q69 0 97.5 32.5t31.5 107.5v14zM344 975v-97h-93v97
h93z" />
    <glyph glyph-name="cdotaccent" unicode="&#x10b;" horiz-adv-x="514" 
d="M378 193h89v-7q0 -99 -49 -148.5t-156 -49.5t-157 54t-50 175v161q0 120 51.5 173.5t158.5 53.5q104 0 152 -47.5t48 -144.5v-10h-89v9q0 56 -25 83.5t-86 27.5q-65 0 -91.5 -32.5t-26.5 -111.5v-162q0 -79 25.5 -113.5t90.5 -34.5q63 0 89 29t26 87v8zM307 820v-97h-93
v97h93z" />
    <glyph glyph-name="Ccaron" unicode="&#x10c;" horiz-adv-x="577" 
d="M433 231h99v-13q-2 -115 -55.5 -172.5t-172.5 -57.5q-131 0 -185 66.5t-54 203.5v243q0 138 54.5 205.5t184.5 67.5q227 0 227 -229v-9h-100v11q0 138 -127 138q-84 0 -112 -45t-28 -139v-239q0 -97 27 -141t113 -44q69 0 97.5 32.5t31.5 107.5v14zM134 955h93l71 -70
l71 70h93l-131 -126h-66z" />
    <glyph glyph-name="ccaron" unicode="&#x10d;" horiz-adv-x="514" 
d="M378 193h89v-7q0 -99 -49 -148.5t-156 -49.5t-157 54t-50 175v161q0 120 51.5 173.5t158.5 53.5q104 0 152 -47.5t48 -144.5v-10h-89v9q0 56 -25 83.5t-86 27.5q-65 0 -91.5 -32.5t-26.5 -111.5v-162q0 -79 25.5 -113.5t90.5 -34.5q63 0 89 29t26 87v8zM97 800h93l71 -70
l71 70h93l-131 -126h-66z" />
    <glyph glyph-name="Dcaron" unicode="&#x10e;" horiz-adv-x="596" 
d="M74 0v762h201q140 0 198 -66.5t58 -211.5v-212q0 -141 -58.5 -206.5t-198.5 -65.5h-200zM273 678h-104v-594h106q91 0 124 42.5t33 140.5v222q0 103 -33 146t-126 43zM96 955h93l71 -70l71 70h93l-131 -126h-66z" />
    <glyph glyph-name="dcaron" unicode="&#x10f;" horiz-adv-x="557" 
d="M533 772h91l-35 -179h-67zM390 0l-6 48q-41 -60 -149 -60q-180 0 -180 229v164q0 114 52 169t137 55q90 0 134 -51v218h92v-772h-80zM378 188v206q0 130 -115 130q-116 0 -116 -148v-161q0 -75 27.5 -110.5t86.5 -35.5q55 0 86 30t31 89z" />
    <glyph glyph-name="Dcroat" unicode="&#x110;" horiz-adv-x="614" 
d="M92 0v339h-77v84h77v339h201q140 0 198 -66.5t58 -211.5v-212q0 -141 -58.5 -206.5t-198.5 -65.5h-200zM302 339h-115v-255h106q91 0 124 42.5t33 140.5v222q0 103 -33 146t-126 43h-104v-255h115v-84z" />
    <glyph glyph-name="dcroat" unicode="&#x111;" horiz-adv-x="563" 
d="M253 705h125v67h92v-67h69v-72h-69v-633h-80l-6 48q-41 -60 -149 -60q-180 0 -180 229v136q0 114 52 169t137 55q90 0 134 -51v107h-125v72zM378 188v178q0 130 -115 130q-116 0 -116 -148v-133q0 -75 27.5 -110.5t86.5 -35.5q55 0 86 30t31 89z" />
    <glyph glyph-name="Emacron" unicode="&#x112;" horiz-adv-x="530" 
d="M171 678v-245h261v-84h-261v-265h308v-84h-403v762h393v-84h-298zM149 929h244v-71h-244v71z" />
    <glyph glyph-name="emacron" unicode="&#x113;" horiz-adv-x="516" 
d="M373 166h86q-2 -90 -48.5 -134t-147.5 -44q-108 0 -158 53t-50 174v164q0 115 51 170.5t155 55.5q105 0 154 -53.5t49 -167.5v-110h-318v-66q0 -76 26 -108.5t90 -32.5q59 0 84 23.5t27 75.5zM262 525q-64 0 -90 -34.5t-26 -115.5v-28h230v33q0 76 -25.5 110.5
t-88.5 34.5zM137 774h244v-71h-244v71z" />
    <glyph glyph-name="Ebreve" unicode="&#x114;" horiz-adv-x="530" 
d="M171 678v-245h261v-84h-261v-265h308v-84h-403v762h393v-84h-298zM271 826q-136 0 -139 127h68q2 -38 18 -52.5t53 -14.5t53 14.5t18 52.5h68q-3 -127 -139 -127z" />
    <glyph glyph-name="ebreve" unicode="&#x115;" horiz-adv-x="516" 
d="M373 166h86q-2 -90 -48.5 -134t-147.5 -44q-108 0 -158 53t-50 174v164q0 115 51 170.5t155 55.5q105 0 154 -53.5t49 -167.5v-110h-318v-66q0 -76 26 -108.5t90 -32.5q59 0 84 23.5t27 75.5zM262 525q-64 0 -90 -34.5t-26 -115.5v-28h230v33q0 76 -25.5 110.5
t-88.5 34.5zM259 671q-136 0 -139 127h68q2 -38 18 -52.5t53 -14.5t53 14.5t18 52.5h68q-3 -127 -139 -127z" />
    <glyph glyph-name="Edotaccent" unicode="&#x116;" horiz-adv-x="530" 
d="M171 678v-245h261v-84h-261v-265h308v-84h-403v762h393v-84h-298zM318 975v-97h-93v97h93z" />
    <glyph glyph-name="edotaccent" unicode="&#x117;" horiz-adv-x="516" 
d="M373 166h86q-2 -90 -48.5 -134t-147.5 -44q-108 0 -158 53t-50 174v164q0 115 51 170.5t155 55.5q105 0 154 -53.5t49 -167.5v-110h-318v-66q0 -76 26 -108.5t90 -32.5q59 0 84 23.5t27 75.5zM262 525q-64 0 -90 -34.5t-26 -115.5v-28h230v33q0 76 -25.5 110.5
t-88.5 34.5zM306 820v-97h-93v97h93z" />
    <glyph glyph-name="Eogonek" unicode="&#x118;" horiz-adv-x="530" 
d="M171 678v-245h261v-84h-261v-265h308v-84h-403v762h393v-84h-298zM474 -143l2 -62q-32 -7 -74 -7q-114 0 -114 84q0 87 130 141l61 -13q-27 -16 -42.5 -26t-34 -25.5t-27 -31t-8.5 -32.5q0 -35 57 -35q24 0 50 7z" />
    <glyph glyph-name="eogonek" unicode="&#x119;" horiz-adv-x="516" 
d="M373 166h86q-2 -90 -48.5 -134t-147.5 -44q-108 0 -158 53t-50 174v164q0 115 51 170.5t155 55.5q105 0 154 -53.5t49 -167.5v-110h-318v-66q0 -76 26 -108.5t90 -32.5q59 0 84 23.5t27 75.5zM262 525q-64 0 -90 -34.5t-26 -115.5v-28h230v33q0 76 -25.5 110.5
t-88.5 34.5zM347 -143l2 -62q-32 -7 -74 -7q-114 0 -114 84q0 87 130 141l61 -13q-27 -16 -42.5 -26t-34 -25.5t-27 -31t-8.5 -32.5q0 -35 57 -35q24 0 50 7z" />
    <glyph glyph-name="Ecaron" unicode="&#x11a;" horiz-adv-x="530" 
d="M171 678v-245h261v-84h-261v-265h308v-84h-403v762h393v-84h-298zM107 955h93l71 -70l71 70h93l-131 -126h-66z" />
    <glyph glyph-name="ecaron" unicode="&#x11b;" horiz-adv-x="516" 
d="M373 166h86q-2 -90 -48.5 -134t-147.5 -44q-108 0 -158 53t-50 174v164q0 115 51 170.5t155 55.5q105 0 154 -53.5t49 -167.5v-110h-318v-66q0 -76 26 -108.5t90 -32.5q59 0 84 23.5t27 75.5zM262 525q-64 0 -90 -34.5t-26 -115.5v-28h230v33q0 76 -25.5 110.5
t-88.5 34.5zM95 800h93l71 -70l71 70h93l-131 -126h-66z" />
    <glyph glyph-name="Gcircumflex" unicode="&#x11c;" horiz-adv-x="613" 
d="M310 391h244v-146q0 -133 -54 -195t-189 -62q-136 0 -191 65t-55 203v246q0 140 59 206t190 66q126 0 183 -57t58 -173v-7h-96v9q0 77 -33 109.5t-112 32.5q-87 0 -120.5 -43t-33.5 -143v-246q0 -104 31.5 -144t122.5 -40q84 0 116 39.5t32 126.5v69h-152v84zM380 829
l-71 70l-71 -70h-93l131 126h66l131 -126h-93z" />
    <glyph glyph-name="gcircumflex" unicode="&#x11d;" 
d="M262 -127q65 0 90.5 33t25.5 118v36q-44 -52 -143 -52q-180 0 -180 229v144q0 114 52 169t137 55q92 0 136 -54l3 42h87v-561q0 -128 -52 -181.5t-159 -53.5q-98 0 -143 40.5t-48 122.5h88q3 -45 27 -66t79 -21zM378 208v186q0 130 -115 130q-116 0 -116 -148v-141
q0 -75 27.5 -110.5t86.5 -35.5q55 0 86 30t31 89zM333 674l-71 70l-71 -70h-93l131 126h66l131 -126h-93z" />
    <glyph glyph-name="Gbreve" unicode="&#x11e;" horiz-adv-x="613" 
d="M310 391h244v-146q0 -133 -54 -195t-189 -62q-136 0 -191 65t-55 203v246q0 140 59 206t190 66q126 0 183 -57t58 -173v-7h-96v9q0 77 -33 109.5t-112 32.5q-87 0 -120.5 -43t-33.5 -143v-246q0 -104 31.5 -144t122.5 -40q84 0 116 39.5t32 126.5v69h-152v84zM309 826
q-136 0 -139 127h68q2 -38 18 -52.5t53 -14.5t53 14.5t18 52.5h68q-3 -127 -139 -127z" />
    <glyph glyph-name="gbreve" unicode="&#x11f;" 
d="M262 -127q65 0 90.5 33t25.5 118v36q-44 -52 -143 -52q-180 0 -180 229v144q0 114 52 169t137 55q92 0 136 -54l3 42h87v-561q0 -128 -52 -181.5t-159 -53.5q-98 0 -143 40.5t-48 122.5h88q3 -45 27 -66t79 -21zM378 208v186q0 130 -115 130q-116 0 -116 -148v-141
q0 -75 27.5 -110.5t86.5 -35.5q55 0 86 30t31 89zM262 671q-136 0 -139 127h68q2 -38 18 -52.5t53 -14.5t53 14.5t18 52.5h68q-3 -127 -139 -127z" />
    <glyph glyph-name="Gdotaccent" unicode="&#x120;" horiz-adv-x="613" 
d="M310 391h244v-146q0 -133 -54 -195t-189 -62q-136 0 -191 65t-55 203v246q0 140 59 206t190 66q126 0 183 -57t58 -173v-7h-96v9q0 77 -33 109.5t-112 32.5q-87 0 -120.5 -43t-33.5 -143v-246q0 -104 31.5 -144t122.5 -40q84 0 116 39.5t32 126.5v69h-152v84zM356 975
v-97h-93v97h93z" />
    <glyph glyph-name="gdotaccent" unicode="&#x121;" 
d="M262 -127q65 0 90.5 33t25.5 118v36q-44 -52 -143 -52q-180 0 -180 229v144q0 114 52 169t137 55q92 0 136 -54l3 42h87v-561q0 -128 -52 -181.5t-159 -53.5q-98 0 -143 40.5t-48 122.5h88q3 -45 27 -66t79 -21zM378 208v186q0 130 -115 130q-116 0 -116 -148v-141
q0 -75 27.5 -110.5t86.5 -35.5q55 0 86 30t31 89zM308 820v-97h-93v97h93z" />
    <glyph glyph-name="Gcommaaccent" unicode="&#x122;" horiz-adv-x="613" 
d="M310 391h244v-146q0 -133 -54 -195t-189 -62q-136 0 -191 65t-55 203v246q0 140 59 206t190 66q126 0 183 -57t58 -173v-7h-96v9q0 77 -33 109.5t-112 32.5q-87 0 -120.5 -43t-33.5 -143v-246q0 -104 31.5 -144t122.5 -40q84 0 116 39.5t32 126.5v69h-152v84zM313 -218
h-82l41 146h100z" />
    <glyph glyph-name="gcommaaccent" unicode="&#x123;" 
d="M262 -127q65 0 90.5 33t25.5 118v36q-44 -52 -143 -52q-180 0 -180 229v144q0 114 52 169t137 55q92 0 136 -54l3 42h87v-561q0 -128 -52 -181.5t-159 -53.5q-98 0 -143 40.5t-48 122.5h88q3 -45 27 -66t79 -21zM378 208v186q0 130 -115 130q-116 0 -116 -148v-141
q0 -75 27.5 -110.5t86.5 -35.5q55 0 86 30t31 89zM261 803h82l-41 -146h-100z" />
    <glyph glyph-name="Hcircumflex" unicode="&#x124;" horiz-adv-x="619" 
d="M546 762v-762h-94v348h-283v-348h-95v762h95v-327h283v327h94zM380 829l-71 70l-71 -70h-93l131 126h66l131 -126h-93z" />
    <glyph glyph-name="hcircumflex" unicode="&#x125;" horiz-adv-x="548" 
d="M163 772v-216q44 49 134 49q100 0 142.5 -52.5t42.5 -160.5v-392h-92v384q0 75 -24.5 107.5t-87.5 32.5q-53 0 -84 -30.5t-31 -89.5v-404h-92v772h92zM188 829l-71 70l-71 -70h-93l131 126h66l131 -126h-93z" />
    <glyph glyph-name="Hbar" unicode="&#x126;" horiz-adv-x="664" 
d="M568 762v-121h75v-81h-75v-560h-94v348h-283v-348h-95v560h-75v81h75v121h95v-121h283v121h94zM191 435h283v125h-283v-125z" />
    <glyph glyph-name="hbar" unicode="&#x127;" horiz-adv-x="554" 
d="M8 705h69v67h92v-67h125v-72h-125v-105q44 49 134 49q100 0 142.5 -52.5t42.5 -160.5v-364h-92v356q0 75 -24.5 107.5t-87.5 32.5q-53 0 -84 -30.5t-31 -89.5v-376h-92v633h-69v72z" />
    <glyph glyph-name="Itilde" unicode="&#x128;" horiz-adv-x="247" 
d="M171 762v-762h-95v762h95zM221 944h64q-12 -112 -91 -112q-36 0 -74 24q-37 23 -57 23q-27 0 -36 -47h-64q12 112 91 112q36 0 74 -24q37 -23 57 -23q27 0 36 47z" />
    <glyph glyph-name="itilde" unicode="&#x129;" horiz-adv-x="234" 
d="M163 593v-593h-92v593h92zM215 789h64q-12 -112 -91 -112q-36 0 -74 24q-37 23 -57 23q-27 0 -36 -47h-64q12 112 91 112q36 0 74 -24q37 -23 57 -23q27 0 36 47z" />
    <glyph glyph-name="Imacron" unicode="&#x12a;" horiz-adv-x="247" 
d="M171 762v-762h-95v762h95zM1 929h244v-71h-244v71z" />
    <glyph glyph-name="imacron" unicode="&#x12b;" horiz-adv-x="234" 
d="M163 593v-593h-92v593h92zM-5 774h244v-71h-244v71z" />
    <glyph glyph-name="Ibreve" unicode="&#x12c;" horiz-adv-x="247" 
d="M171 762v-762h-95v762h95zM123 826q-136 0 -139 127h68q2 -38 18 -52.5t53 -14.5t53 14.5t18 52.5h68q-3 -127 -139 -127z" />
    <glyph glyph-name="ibreve" unicode="&#x12d;" horiz-adv-x="234" 
d="M163 593v-593h-92v593h92zM117 671q-136 0 -139 127h68q2 -38 18 -52.5t53 -14.5t53 14.5t18 52.5h68q-3 -127 -139 -127z" />
    <glyph glyph-name="Iogonek" unicode="&#x12e;" horiz-adv-x="247" 
d="M171 762v-762h-95v762h95zM166 -143l2 -62q-32 -7 -74 -7q-114 0 -114 84q0 87 130 141l61 -13q-27 -16 -42.5 -26t-34 -25.5t-27 -31t-8.5 -32.5q0 -35 57 -35q24 0 50 7z" />
    <glyph glyph-name="iogonek" unicode="&#x12f;" horiz-adv-x="234" 
d="M163 593v-593h-92v593h92zM164 800v-97h-94v97h94zM158 -143l2 -62q-32 -7 -74 -7q-114 0 -114 84q0 87 130 141l61 -13q-27 -16 -42.5 -26t-34 -25.5t-27 -31t-8.5 -32.5q0 -35 57 -35q24 0 50 7z" />
    <glyph glyph-name="Idotaccent" unicode="&#x130;" horiz-adv-x="247" 
d="M171 762v-762h-95v762h95zM169 975v-97h-93v97h93z" />
    <glyph glyph-name="dotlessi" unicode="&#x131;" horiz-adv-x="234" 
d="M163 593v-593h-92v593h92z" />
    <glyph glyph-name="IJ" unicode="&#x132;" horiz-adv-x="735" 
d="M171 762v-762h-95v762h95zM245 190h88q2 -57 29.5 -86.5t88.5 -29.5q64 0 92.5 36.5t28.5 119.5v532h95v-525q0 -135 -53 -192t-160 -57q-207 0 -209 202z" />
    <glyph glyph-name="ij" unicode="&#x133;" horiz-adv-x="456" 
d="M163 593v-593h-92v593h92zM164 800v-97h-94v97h94zM386 800v-97h-94v97h94zM210 -193v80q51 -2 67 19.5t16 100.5v586h92v-583q0 -117 -38 -163.5t-137 -39.5z" />
    <glyph glyph-name="Jcircumflex" unicode="&#x134;" horiz-adv-x="500" 
d="M10 190h88q2 -57 29.5 -86.5t88.5 -29.5q64 0 92.5 36.5t28.5 119.5v532h95v-525q0 -135 -53 -192t-160 -57q-207 0 -209 202zM455 829l-71 70l-71 -70h-93l131 126h66l131 -126h-93z" />
    <glyph glyph-name="jcircumflex" unicode="&#x135;" horiz-adv-x="234" 
d="M-12 -193v80q51 -2 67 19.5t16 100.5v586h92v-583q0 -117 -38 -163.5t-137 -39.5zM188 674l-71 70l-71 -70h-93l131 126h66l131 -126h-93z" />
    <glyph glyph-name="Kcommaaccent" unicode="&#x136;" horiz-adv-x="604" 
d="M583 0h-115l-219 345h-80v-345h-95v762h95v-332h79l198 332h110l-230 -370zM303 -218h-82l41 146h100z" />
    <glyph glyph-name="kcommaaccent" unicode="&#x137;" horiz-adv-x="545" 
d="M499 593l-203 -270l233 -323h-115l-194 278h-57v-278h-92v772h92v-412h57l168 233h111zM270 -218h-82l41 146h100z" />
    <glyph glyph-name="kgreenlandic" unicode="&#x138;" horiz-adv-x="532" 
d="M493 593l-203 -270l233 -323h-115l-194 278h-57v-278h-92v593h92v-233h57l168 233h111z" />
    <glyph glyph-name="Lacute" unicode="&#x139;" horiz-adv-x="487" 
d="M454 86v-86h-378v762h95v-676h283zM149 829h-81l85 133h98z" />
    <glyph glyph-name="lacute" unicode="&#x13a;" horiz-adv-x="279" 
d="M249 77v-81q-108 -11 -144.5 32.5t-36.5 160.5v583h92v-588q0 -70 17 -89.5t72 -17.5zM140 829h-81l85 133h98z" />
    <glyph glyph-name="Lcommaaccent" unicode="&#x13b;" horiz-adv-x="487" 
d="M454 86v-86h-378v762h95v-676h283zM260 -218h-82l41 146h100z" />
    <glyph glyph-name="lcommaaccent" unicode="&#x13c;" horiz-adv-x="279" 
d="M249 77v-81q-108 -11 -144.5 32.5t-36.5 160.5v583h92v-588q0 -70 17 -89.5t72 -17.5zM162 -218h-82l41 146h100z" />
    <glyph glyph-name="Lcaron" unicode="&#x13d;" horiz-adv-x="487" 
d="M261 772h91l-35 -179h-67zM454 86v-86h-378v762h95v-676h283z" />
    <glyph glyph-name="lcaron" unicode="&#x13e;" horiz-adv-x="347" 
d="M227 772h91l-35 -179h-67zM249 77v-81q-108 -11 -144.5 32.5t-36.5 160.5v583h92v-588q0 -70 17 -89.5t72 -17.5z" />
    <glyph glyph-name="Ldot" unicode="&#x13f;" horiz-adv-x="487" 
d="M454 86v-86h-378v762h95v-676h283zM369 413v-97h-92v97h92z" />
    <glyph glyph-name="ldot" unicode="&#x140;" horiz-adv-x="340" 
d="M249 77v-81q-108 -11 -144.5 32.5t-36.5 160.5v583h92v-588q0 -70 17 -89.5t72 -17.5zM320 395v-97h-92v97h92z" />
    <glyph glyph-name="Lslash" unicode="&#x141;" horiz-adv-x="499" 
d="M466 86v-86h-378v310l-113 -55v77l113 55v375h95v-328l179 88v-79l-179 -87v-270h283z" />
    <glyph glyph-name="lslash" unicode="&#x142;" horiz-adv-x="305" 
d="M263 77v-81q-108 -11 -144.5 32.5t-36.5 160.5v117l-71 -28v73l71 28v393h92v-356l95 39v-75l-95 -38v-158q0 -70 17 -89.5t72 -17.5z" />
    <glyph glyph-name="Nacute" unicode="&#x143;" horiz-adv-x="615" 
d="M74 762h101l273 -586v586h94v-762h-99l-275 578v-578h-94v762zM335 829h-81l85 133h98z" />
    <glyph glyph-name="nacute" unicode="&#x144;" horiz-adv-x="547" 
d="M71 593h80l5 -45q45 57 141 57q100 0 142.5 -52.5t42.5 -160.5v-392h-92v384q0 75 -24.5 107.5t-87.5 32.5q-53 0 -84 -30.5t-31 -89.5v-404h-92v593zM304 674h-81l85 133h98z" />
    <glyph glyph-name="Ncommaaccent" unicode="&#x145;" horiz-adv-x="615" 
d="M74 762h101l273 -586v586h94v-762h-99l-275 578v-578h-94v762zM299 -218h-82l41 146h100z" />
    <glyph glyph-name="ncommaaccent" unicode="&#x146;" horiz-adv-x="547" 
d="M71 593h80l5 -45q45 57 141 57q100 0 142.5 -52.5t42.5 -160.5v-392h-92v384q0 75 -24.5 107.5t-87.5 32.5q-53 0 -84 -30.5t-31 -89.5v-404h-92v593zM273 -218h-82l41 146h100z" />
    <glyph glyph-name="Ncaron" unicode="&#x147;" horiz-adv-x="615" 
d="M74 762h101l273 -586v586h94v-762h-99l-275 578v-578h-94v762zM145 955h93l71 -70l71 70h93l-131 -126h-66z" />
    <glyph glyph-name="ncaron" unicode="&#x148;" horiz-adv-x="547" 
d="M71 593h80l5 -45q45 57 141 57q100 0 142.5 -52.5t42.5 -160.5v-392h-92v384q0 75 -24.5 107.5t-87.5 32.5q-53 0 -84 -30.5t-31 -89.5v-404h-92v593zM114 800h93l71 -70l71 70h93l-131 -126h-66z" />
    <glyph glyph-name="napostrophe" unicode="&#x149;" horiz-adv-x="617" 
d="M141 593h80l5 -45q45 57 141 57q100 0 142.5 -52.5t42.5 -160.5v-392h-92v384q0 75 -24.5 107.5t-87.5 32.5q-53 0 -84 -30.5t-31 -89.5v-404h-92v593zM40 772h91l-62 -179h-78z" />
    <glyph glyph-name="Eng" unicode="&#x14a;" horiz-adv-x="611" 
d="M362 -105q50 -2 66 18t17 91l-277 574v-578h-94v762h101l273 -578v578h94v-744q0 -116 -40 -163t-140 -40v80z" />
    <glyph glyph-name="eng" unicode="&#x14b;" horiz-adv-x="547" 
d="M390 7v377q0 75 -24.5 107.5t-87.5 32.5q-53 0 -84 -30.5t-31 -89.5v-404h-92v593h80l5 -45q46 57 144 57q100 0 141 -52t41 -161v-382q0 -117 -38 -163.5t-137 -39.5v80q51 -2 67 19.5t16 100.5z" />
    <glyph glyph-name="Omacron" unicode="&#x14c;" horiz-adv-x="620" 
d="M164 509v-256q0 -94 30.5 -136.5t115.5 -42.5q86 0 116 42.5t30 136.5v256q0 94 -30.5 136.5t-115.5 42.5t-115.5 -42.5t-30.5 -136.5zM310 774q132 0 188.5 -65t56.5 -202v-252q0 -137 -56.5 -202t-188.5 -65t-188.5 65t-56.5 202v252q0 137 56.5 202t188.5 65zM188 929
h244v-71h-244v71z" />
    <glyph glyph-name="omacron" unicode="&#x14d;" horiz-adv-x="526" 
d="M147 376v-159q0 -85 25 -116.5t91 -31.5q65 0 90 31.5t25 116.5v159q0 85 -25 116.5t-90 31.5q-66 0 -91 -31.5t-25 -116.5zM263 605q109 0 158.5 -52.5t49.5 -175.5v-161q0 -123 -49.5 -175.5t-158.5 -52.5t-158.5 52.5t-49.5 175.5v161q0 123 49.5 175.5t158.5 52.5z
M141 774h244v-71h-244v71z" />
    <glyph glyph-name="Obreve" unicode="&#x14e;" horiz-adv-x="620" 
d="M164 509v-256q0 -94 30.5 -136.5t115.5 -42.5q86 0 116 42.5t30 136.5v256q0 94 -30.5 136.5t-115.5 42.5t-115.5 -42.5t-30.5 -136.5zM310 774q132 0 188.5 -65t56.5 -202v-252q0 -137 -56.5 -202t-188.5 -65t-188.5 65t-56.5 202v252q0 137 56.5 202t188.5 65zM310 826
q-136 0 -139 127h68q2 -38 18 -52.5t53 -14.5t53 14.5t18 52.5h68q-3 -127 -139 -127z" />
    <glyph glyph-name="obreve" unicode="&#x14f;" horiz-adv-x="526" 
d="M147 376v-159q0 -85 25 -116.5t91 -31.5q65 0 90 31.5t25 116.5v159q0 85 -25 116.5t-90 31.5q-66 0 -91 -31.5t-25 -116.5zM263 605q109 0 158.5 -52.5t49.5 -175.5v-161q0 -123 -49.5 -175.5t-158.5 -52.5t-158.5 52.5t-49.5 175.5v161q0 123 49.5 175.5t158.5 52.5z
M263 671q-136 0 -139 127h68q2 -38 18 -52.5t53 -14.5t53 14.5t18 52.5h68q-3 -127 -139 -127z" />
    <glyph glyph-name="Ohungarumlaut" unicode="&#x150;" horiz-adv-x="620" 
d="M164 509v-256q0 -94 30.5 -136.5t115.5 -42.5q86 0 116 42.5t30 136.5v256q0 94 -30.5 136.5t-115.5 42.5t-115.5 -42.5t-30.5 -136.5zM310 774q132 0 188.5 -65t56.5 -202v-252q0 -137 -56.5 -202t-188.5 -65t-188.5 65t-56.5 202v252q0 137 56.5 202t188.5 65zM256 829
h-79l66 133h92zM414 828h-78l69 134h92z" />
    <glyph glyph-name="ohungarumlaut" unicode="&#x151;" horiz-adv-x="526" 
d="M147 376v-159q0 -85 25 -116.5t91 -31.5q65 0 90 31.5t25 116.5v159q0 85 -25 116.5t-90 31.5q-66 0 -91 -31.5t-25 -116.5zM263 605q109 0 158.5 -52.5t49.5 -175.5v-161q0 -123 -49.5 -175.5t-158.5 -52.5t-158.5 52.5t-49.5 175.5v161q0 123 49.5 175.5t158.5 52.5z
M208 674h-79l66 133h92zM366 673h-78l69 134h92z" />
    <glyph glyph-name="OE" unicode="&#x152;" horiz-adv-x="843" 
d="M300 762h492v-84h-298v-245h261v-84h-261v-265h308v-84h-502q-132 0 -188 65t-56 202v228q0 137 56 202t188 65zM155 497v-232q0 -94 30 -136.5t115 -42.5h99v590h-99q-86 0 -115.5 -42.5t-29.5 -136.5z" />
    <glyph glyph-name="oe" unicode="&#x153;" horiz-adv-x="827" 
d="M580 -12q-124 0 -166 75q-42 -75 -167 -75q-101 0 -149.5 53t-48.5 175v161q0 123 48.5 175.5t153.5 52.5q125 0 169 -75q46 75 158 75q105 0 154 -53.5t49 -167.5v-110h-318v-66q0 -76 26 -108.5t90 -32.5q59 0 84 23.5t27 75.5h86q-2 -90 -48.5 -134t-147.5 -44z
M141 376v-159q0 -85 25 -116.5t91 -31.5q65 0 90 31.5t25 116.5v159q0 85 -25 116.5t-90 31.5q-66 0 -91 -31.5t-25 -116.5zM579 525q-64 0 -90 -34.5t-26 -115.5v-28h230v33q0 76 -25.5 110.5t-88.5 34.5z" />
    <glyph glyph-name="Racute" unicode="&#x154;" horiz-adv-x="550" 
d="M74 0v762h196q115 0 172.5 -47.5t57.5 -160.5v-29q0 -79 -25.5 -123t-79.5 -63l129 -339h-106l-114 320q-9 -1 -43 -1h-92v-319h-95zM406 531v16q0 77 -32 104t-104 27h-101v-277h109q74 0 101 28t27 102zM295 829h-81l85 133h98z" />
    <glyph glyph-name="racute" unicode="&#x155;" horiz-adv-x="351" 
d="M71 593h80l8 -70q19 34 57.5 57.5t85.5 23.5q13 0 29 -2v-95q-16 3 -37 3q-58 0 -94.5 -35.5t-36.5 -105.5v-369h-92v593zM229 674h-81l85 133h98z" />
    <glyph glyph-name="Rcommaaccent" unicode="&#x156;" horiz-adv-x="550" 
d="M74 0v762h196q115 0 172.5 -47.5t57.5 -160.5v-29q0 -79 -25.5 -123t-79.5 -63l129 -339h-106l-114 320q-9 -1 -43 -1h-92v-319h-95zM406 531v16q0 77 -32 104t-104 27h-101v-277h109q74 0 101 28t27 102zM278 -218h-82l41 146h100z" />
    <glyph glyph-name="rcommaaccent" unicode="&#x157;" horiz-adv-x="351" 
d="M71 593h80l8 -70q19 34 57.5 57.5t85.5 23.5q13 0 29 -2v-95q-16 3 -37 3q-58 0 -94.5 -35.5t-36.5 -105.5v-369h-92v593zM117 -218h-82l41 146h100z" />
    <glyph glyph-name="Rcaron" unicode="&#x158;" horiz-adv-x="550" 
d="M74 0v762h196q115 0 172.5 -47.5t57.5 -160.5v-29q0 -79 -25.5 -123t-79.5 -63l129 -339h-106l-114 320q-9 -1 -43 -1h-92v-319h-95zM406 531v16q0 77 -32 104t-104 27h-101v-277h109q74 0 101 28t27 102zM105 955h93l71 -70l71 70h93l-131 -126h-66z" />
    <glyph glyph-name="rcaron" unicode="&#x159;" horiz-adv-x="351" 
d="M71 593h80l8 -70q19 34 57.5 57.5t85.5 23.5q13 0 29 -2v-95q-16 3 -37 3q-58 0 -94.5 -35.5t-36.5 -105.5v-369h-92v593zM39 800h93l71 -70l71 70h93l-131 -126h-66z" />
    <glyph glyph-name="Sacute" unicode="&#x15a;" horiz-adv-x="546" 
d="M253 355q-100 29 -148 75t-48 141q0 99 55.5 151t160.5 52q212 0 227 -195h-94q-10 111 -131 111q-125 0 -125 -116q0 -57 30.5 -86t105.5 -51q109 -31 164.5 -82.5t55.5 -148.5q0 -112 -59 -165t-177 -53q-111 0 -168.5 55t-58.5 146h93q5 -116 138 -116
q72 0 104.5 29.5t32.5 102.5q0 60 -34.5 92t-123.5 58zM301 829h-81l85 133h98z" />
    <glyph glyph-name="sacute" unicode="&#x15b;" horiz-adv-x="496" 
d="M256 348q44 -7 74.5 -17t61.5 -29.5t46.5 -53t15.5 -80.5q0 -86 -54 -133t-155 -47q-204 0 -204 179h88q0 -50 28.5 -75t91.5 -25q112 0 112 95q0 52 -30 73.5t-98 33.5q-90 15 -134.5 51.5t-44.5 120.5q0 77 51.5 120.5t145.5 43.5q194 0 194 -171h-86q-2 47 -27 69.5
t-83 22.5q-105 0 -105 -81q0 -47 24.5 -66.5t87.5 -30.5zM278 674h-81l85 133h98z" />
    <glyph glyph-name="Scircumflex" unicode="&#x15c;" horiz-adv-x="546" 
d="M253 355q-100 29 -148 75t-48 141q0 99 55.5 151t160.5 52q212 0 227 -195h-94q-10 111 -131 111q-125 0 -125 -116q0 -57 30.5 -86t105.5 -51q109 -31 164.5 -82.5t55.5 -148.5q0 -112 -59 -165t-177 -53q-111 0 -168.5 55t-58.5 146h93q5 -116 138 -116
q72 0 104.5 29.5t32.5 102.5q0 60 -34.5 92t-123.5 58zM346 829l-71 70l-71 -70h-93l131 126h66l131 -126h-93z" />
    <glyph glyph-name="scircumflex" unicode="&#x15d;" horiz-adv-x="496" 
d="M256 348q44 -7 74.5 -17t61.5 -29.5t46.5 -53t15.5 -80.5q0 -86 -54 -133t-155 -47q-204 0 -204 179h88q0 -50 28.5 -75t91.5 -25q112 0 112 95q0 52 -30 73.5t-98 33.5q-90 15 -134.5 51.5t-44.5 120.5q0 77 51.5 120.5t145.5 43.5q194 0 194 -171h-86q-2 47 -27 69.5
t-83 22.5q-105 0 -105 -81q0 -47 24.5 -66.5t87.5 -30.5zM323 674l-71 70l-71 -70h-93l131 126h66l131 -126h-93z" />
    <glyph glyph-name="Scedilla" unicode="&#x15e;" horiz-adv-x="546" 
d="M253 355q-100 29 -148 75t-48 141q0 99 55.5 151t160.5 52q212 0 227 -195h-94q-10 111 -131 111q-125 0 -125 -116q0 -57 30.5 -86t105.5 -51q109 -31 164.5 -82.5t55.5 -148.5q0 -112 -59 -165t-177 -53q-111 0 -168.5 55t-58.5 146h93q5 -116 138 -116
q72 0 104.5 29.5t32.5 102.5q0 60 -34.5 92t-123.5 58zM302 0l-6 -35q93 -13 93 -97q0 -51 -33 -80t-94 -29q-62 0 -97 15l7 58q36 -13 77 -13q32 0 47 12t15 39q0 26 -18.5 37.5t-68.5 12.5l12 80h66z" />
    <glyph glyph-name="scedilla" unicode="&#x15f;" horiz-adv-x="496" 
d="M256 348q44 -7 74.5 -17t61.5 -29.5t46.5 -53t15.5 -80.5q0 -86 -54 -133t-155 -47q-204 0 -204 179h88q0 -50 28.5 -75t91.5 -25q112 0 112 95q0 52 -30 73.5t-98 33.5q-90 15 -134.5 51.5t-44.5 120.5q0 77 51.5 120.5t145.5 43.5q194 0 194 -171h-86q-2 47 -27 69.5
t-83 22.5q-105 0 -105 -81q0 -47 24.5 -66.5t87.5 -30.5zM278 0l-6 -35q93 -13 93 -97q0 -51 -33 -80t-94 -29q-62 0 -97 15l7 58q36 -13 77 -13q32 0 47 12t15 39q0 26 -18.5 37.5t-68.5 12.5l12 80h66z" />
    <glyph glyph-name="Scaron" unicode="&#x160;" horiz-adv-x="546" 
d="M253 355q-100 29 -148 75t-48 141q0 99 55.5 151t160.5 52q212 0 227 -195h-94q-10 111 -131 111q-125 0 -125 -116q0 -57 30.5 -86t105.5 -51q109 -31 164.5 -82.5t55.5 -148.5q0 -112 -59 -165t-177 -53q-111 0 -168.5 55t-58.5 146h93q5 -116 138 -116
q72 0 104.5 29.5t32.5 102.5q0 60 -34.5 92t-123.5 58zM111 955h93l71 -70l71 70h93l-131 -126h-66z" />
    <glyph glyph-name="scaron" unicode="&#x161;" horiz-adv-x="496" 
d="M256 348q44 -7 74.5 -17t61.5 -29.5t46.5 -53t15.5 -80.5q0 -86 -54 -133t-155 -47q-204 0 -204 179h88q0 -50 28.5 -75t91.5 -25q112 0 112 95q0 52 -30 73.5t-98 33.5q-90 15 -134.5 51.5t-44.5 120.5q0 77 51.5 120.5t145.5 43.5q194 0 194 -171h-86q-2 47 -27 69.5
t-83 22.5q-105 0 -105 -81q0 -47 24.5 -66.5t87.5 -30.5zM88 800h93l71 -70l71 70h93l-131 -126h-66z" />
    <glyph glyph-name="uni0162" unicode="&#x162;" horiz-adv-x="534" 
d="M314 0h-95v675h-184v87h464v-87h-185v-675zM260 -218h-82l41 146h100z" />
    <glyph glyph-name="uni0163" unicode="&#x163;" horiz-adv-x="332" 
d="M244 72q25 0 47 5v-82q-28 -7 -67 -7q-90 0 -126 46.5t-36 150.5v527h94v-139h135v-81h-136v-310q0 -63 20 -86.5t69 -23.5zM184 -218h-82l41 146h100z" />
    <glyph glyph-name="Tcaron" unicode="&#x164;" horiz-adv-x="534" 
d="M314 0h-95v675h-184v87h464v-87h-185v-675zM102 955h93l71 -70l71 70h93l-131 -126h-66z" />
    <glyph glyph-name="tcaron" unicode="&#x165;" horiz-adv-x="332" 
d="M248 772h79l-28 -156h-62zM244 72q25 0 47 5v-82q-28 -7 -67 -7q-90 0 -126 46.5t-36 150.5v527h94v-139h135v-81h-136v-310q0 -63 20 -86.5t69 -23.5z" />
    <glyph glyph-name="Tbar" unicode="&#x166;" horiz-adv-x="534" 
d="M314 0h-95v380h-135v78h135v217h-184v87h464v-87h-185v-217h136v-78h-136v-380z" />
    <glyph glyph-name="tbar" unicode="&#x167;" horiz-adv-x="359" 
d="M267 72q25 0 47 5v-82q-28 -7 -67 -7q-90 0 -126 46.5t-36 150.5v108h-65v72h65v347h94v-139h135v-81h-136v-127h136v-72h-136v-111q0 -63 20 -86.5t69 -23.5z" />
    <glyph glyph-name="Utilde" unicode="&#x168;" horiz-adv-x="613" 
d="M450 762h95v-496q0 -141 -53 -209.5t-186 -68.5q-134 0 -186.5 68t-52.5 210v496h96v-502q0 -97 29.5 -141t113.5 -44q85 0 114.5 44t29.5 141v502zM404 944h64q-12 -112 -91 -112q-36 0 -74 24q-37 23 -57 23q-27 0 -36 -47h-64q12 112 91 112q36 0 74 -24
q37 -23 57 -23q27 0 36 47z" />
    <glyph glyph-name="utilde" unicode="&#x169;" horiz-adv-x="543" 
d="M472 0h-80l-6 45q-45 -57 -146 -57q-97 0 -136.5 52t-39.5 161v392h92v-384q0 -75 23.5 -107.5t86.5 -32.5q53 0 83.5 30.5t30.5 89.5v404h92v-593zM365 789h64q-12 -112 -91 -112q-36 0 -74 24q-37 23 -57 23q-27 0 -36 -47h-64q12 112 91 112q36 0 74 -24
q37 -23 57 -23q27 0 36 47z" />
    <glyph glyph-name="Umacron" unicode="&#x16a;" horiz-adv-x="613" 
d="M450 762h95v-496q0 -141 -53 -209.5t-186 -68.5q-134 0 -186.5 68t-52.5 210v496h96v-502q0 -97 29.5 -141t113.5 -44q85 0 114.5 44t29.5 141v502zM184 929h244v-71h-244v71z" />
    <glyph glyph-name="umacron" unicode="&#x16b;" horiz-adv-x="543" 
d="M472 0h-80l-6 45q-45 -57 -146 -57q-97 0 -136.5 52t-39.5 161v392h92v-384q0 -75 23.5 -107.5t86.5 -32.5q53 0 83.5 30.5t30.5 89.5v404h92v-593zM145 774h244v-71h-244v71z" />
    <glyph glyph-name="Ubreve" unicode="&#x16c;" horiz-adv-x="613" 
d="M450 762h95v-496q0 -141 -53 -209.5t-186 -68.5q-134 0 -186.5 68t-52.5 210v496h96v-502q0 -97 29.5 -141t113.5 -44q85 0 114.5 44t29.5 141v502zM306 826q-136 0 -139 127h68q2 -38 18 -52.5t53 -14.5t53 14.5t18 52.5h68q-3 -127 -139 -127z" />
    <glyph glyph-name="ubreve" unicode="&#x16d;" horiz-adv-x="543" 
d="M472 0h-80l-6 45q-45 -57 -146 -57q-97 0 -136.5 52t-39.5 161v392h92v-384q0 -75 23.5 -107.5t86.5 -32.5q53 0 83.5 30.5t30.5 89.5v404h92v-593zM267 671q-136 0 -139 127h68q2 -38 18 -52.5t53 -14.5t53 14.5t18 52.5h68q-3 -127 -139 -127z" />
    <glyph glyph-name="Uring" unicode="&#x16e;" horiz-adv-x="613" 
d="M450 762h95v-496q0 -141 -53 -209.5t-186 -68.5q-134 0 -186.5 68t-52.5 210v496h96v-502q0 -97 29.5 -141t113.5 -44q85 0 114.5 44t29.5 141v502zM421 928q0 -53 -29.5 -81.5t-85.5 -28.5t-85.5 28.5t-29.5 81.5q0 54 29.5 82.5t85.5 28.5t85.5 -28.5t29.5 -82.5z
M366 928q0 31 -13.5 46.5t-46.5 15.5t-46.5 -15.5t-13.5 -46.5q0 -30 13.5 -45.5t46.5 -15.5t46.5 15.5t13.5 45.5z" />
    <glyph glyph-name="uring" unicode="&#x16f;" horiz-adv-x="543" 
d="M472 0h-80l-6 45q-45 -57 -146 -57q-97 0 -136.5 52t-39.5 161v392h92v-384q0 -75 23.5 -107.5t86.5 -32.5q53 0 83.5 30.5t30.5 89.5v404h92v-593zM382 773q0 -53 -29.5 -81.5t-85.5 -28.5t-85.5 28.5t-29.5 81.5q0 54 29.5 82.5t85.5 28.5t85.5 -28.5t29.5 -82.5z
M327 773q0 31 -13.5 46.5t-46.5 15.5t-46.5 -15.5t-13.5 -46.5q0 -30 13.5 -45.5t46.5 -15.5t46.5 15.5t13.5 45.5z" />
    <glyph glyph-name="Uhungarumlaut" unicode="&#x170;" horiz-adv-x="613" 
d="M450 762h95v-496q0 -141 -53 -209.5t-186 -68.5q-134 0 -186.5 68t-52.5 210v496h96v-502q0 -97 29.5 -141t113.5 -44q85 0 114.5 44t29.5 141v502zM251 829h-79l66 133h92zM409 828h-78l69 134h92z" />
    <glyph glyph-name="uhungarumlaut" unicode="&#x171;" horiz-adv-x="543" 
d="M472 0h-80l-6 45q-45 -57 -146 -57q-97 0 -136.5 52t-39.5 161v392h92v-384q0 -75 23.5 -107.5t86.5 -32.5q53 0 83.5 30.5t30.5 89.5v404h92v-593zM213 674h-79l66 133h92zM371 673h-78l69 134h92z" />
    <glyph glyph-name="Uogonek" unicode="&#x172;" horiz-adv-x="613" 
d="M450 762h95v-496q0 -141 -53 -209.5t-186 -68.5q-134 0 -186.5 68t-52.5 210v496h96v-502q0 -97 29.5 -141t113.5 -44q85 0 114.5 44t29.5 141v502zM396 -143l2 -62q-31 -7 -74 -7q-114 0 -114 84q0 87 130 141l61 -13q-27 -16 -42.5 -26t-34 -25.5t-27 -31t-8.5 -32.5
q0 -35 57 -35q24 0 50 7z" />
    <glyph glyph-name="uogonek" unicode="&#x173;" horiz-adv-x="543" 
d="M472 0h-80l-6 45q-45 -57 -146 -57q-97 0 -136.5 52t-39.5 161v392h92v-384q0 -75 23.5 -107.5t86.5 -32.5q53 0 83.5 30.5t30.5 89.5v404h92v-593zM467 -143l2 -62q-31 -7 -74 -7q-114 0 -114 84q0 87 130 141l61 -13q-27 -16 -42.5 -26t-34 -25.5t-27 -31t-8.5 -32.5
q0 -35 57 -35q24 0 50 7z" />
    <glyph glyph-name="Wcircumflex" unicode="&#x174;" horiz-adv-x="831" 
d="M538 0l-123 594l-123 -594h-110l-157 762h105l112 -635l125 615h101l122 -610l113 630h103l-157 -762h-111zM486 829l-71 70l-71 -70h-93l131 126h66l131 -126h-93z" />
    <glyph glyph-name="wcircumflex" unicode="&#x175;" horiz-adv-x="736" 
d="M322 593h99l106 -482l94 482h96l-138 -593h-106l-105 451l-105 -451h-106l-138 593h101l94 -479zM439 674l-71 70l-71 -70h-93l131 126h66l131 -126h-93z" />
    <glyph glyph-name="Ycircumflex" unicode="&#x176;" horiz-adv-x="570" 
d="M237 0v330l-229 432h105l174 -355l175 355h100l-230 -433v-329h-95zM356 829l-71 70l-71 -70h-93l131 126h66l131 -126h-93z" />
    <glyph glyph-name="ycircumflex" unicode="&#x177;" horiz-adv-x="489" 
d="M192 -36l9 32l-188 597h100l142 -493l118 493h101l-158 -577q-34 -125 -80.5 -172t-124.5 -47q-35 0 -66 10v89q21 -8 48 -8q40 0 63.5 16t35.5 60zM309 674l-71 70l-71 -70h-93l131 126h66l131 -126h-93z" />
    <glyph glyph-name="Ydieresis" unicode="&#x178;" horiz-adv-x="570" 
d="M237 0v330l-229 432h105l174 -355l175 355h100l-230 -433v-329h-95zM242 941v-86h-84v86h84zM412 941v-86h-84v86h84z" />
    <glyph glyph-name="Zacute" unicode="&#x179;" horiz-adv-x="521" 
d="M478 682l-336 -595h343v-87h-450v79l335 596h-313v87h421v-80zM287 829h-81l85 133h98z" />
    <glyph glyph-name="zacute" unicode="&#x17a;" horiz-adv-x="463" 
d="M421 512l-280 -427h289v-85h-400v81l280 427h-265v85h376v-81zM253 674h-81l85 133h98z" />
    <glyph glyph-name="Zdotaccent" unicode="&#x17b;" horiz-adv-x="521" 
d="M478 682l-336 -595h343v-87h-450v79l335 596h-313v87h421v-80zM307 975v-97h-93v97h93z" />
    <glyph glyph-name="zdotaccent" unicode="&#x17c;" horiz-adv-x="463" 
d="M421 512l-280 -427h289v-85h-400v81l280 427h-265v85h376v-81zM273 820v-97h-93v97h93z" />
    <glyph glyph-name="Zcaron" unicode="&#x17d;" horiz-adv-x="521" 
d="M478 682l-336 -595h343v-87h-450v79l335 596h-313v87h421v-80zM97 955h93l71 -70l71 70h93l-131 -126h-66z" />
    <glyph glyph-name="zcaron" unicode="&#x17e;" horiz-adv-x="463" 
d="M421 512l-280 -427h289v-85h-400v81l280 427h-265v85h376v-81zM63 800h93l71 -70l71 70h93l-131 -126h-66z" />
    <glyph glyph-name="longs" unicode="&#x17f;" horiz-adv-x="326" 
d="M159 583v-583h-94v571q0 114 45 163t148 49q30 0 57 -5v-73q-24 4 -44 4q-62 0 -87 -29t-25 -97z" />
    <glyph glyph-name="florin" unicode="&#x192;" horiz-adv-x="326" 
d="M-18 -185v80q51 -2 67 19.5t16 100.5v556q0 114 45 163t148 49q30 0 57 -5v-73q-24 4 -44 4q-63 0 -88.5 -29t-25.5 -97v-9h141v-81h-141v-475q0 -117 -38 -163.5t-137 -39.5z" />
    <glyph glyph-name="aringacute" unicode="&#x1fb;" horiz-adv-x="524" 
d="M380 0l-3 55q-46 -67 -151 -67q-82 0 -128 42.5t-46 124.5q0 94 54 138t172 44q47 0 96 -7v73q0 66 -26 96t-82 30q-57 0 -84.5 -26.5t-27.5 -91.5h-84q0 100 49 147t151 47q95 0 143.5 -45.5t48.5 -151.5v-408h-82zM374 196v64q-47 7 -93 7q-74 0 -105.5 -25t-31.5 -79
q0 -99 102 -99q54 0 91 34.5t37 97.5zM378 735q0 -53 -29.5 -81.5t-85.5 -28.5t-85.5 28.5t-29.5 81.5q0 54 29.5 82.5t85.5 28.5t85.5 -28.5t29.5 -82.5zM323 735q0 31 -13.5 46.5t-46.5 15.5t-46.5 -15.5t-13.5 -46.5q0 -30 13.5 -45.5t46.5 -15.5t46.5 15.5t13.5 45.5z
M285 867h-81l85 133h98z" />
    <glyph glyph-name="oslashacute" unicode="&#x1ff;" horiz-adv-x="526" 
d="M294 666h-81l85 133h98zM263 605q65 0 108 -18l31 62h78l-53 -104q44 -53 44 -168v-161q0 -123 -49.5 -175.5t-158.5 -52.5q-63 0 -108 17l-31 -61h-78l52 103q-43 55 -43 169v161q0 123 49.5 175.5t158.5 52.5zM147 376v-159q0 -41 4 -65l181 358q-24 14 -69 14
q-66 0 -91 -31.5t-25 -116.5zM378 376q0 39 -4 63l-181 -357q23 -13 70 -13q65 0 90 31.5t25 116.5v159z" />
    <glyph glyph-name="Scommaaccent" unicode="&#x218;" horiz-adv-x="546" 
d="M253 355q-100 29 -148 75t-48 141q0 99 55.5 151t160.5 52q212 0 227 -195h-94q-10 111 -131 111q-125 0 -125 -116q0 -57 30.5 -86t105.5 -51q109 -31 164.5 -82.5t55.5 -148.5q0 -112 -59 -165t-177 -53q-111 0 -168.5 55t-58.5 146h93q5 -116 138 -116
q72 0 104.5 29.5t32.5 102.5q0 60 -34.5 92t-123.5 58zM268 -218h-82l41 146h100z" />
    <glyph glyph-name="scommaaccent" unicode="&#x219;" horiz-adv-x="496" 
d="M256 348q44 -7 74.5 -17t61.5 -29.5t46.5 -53t15.5 -80.5q0 -86 -54 -133t-155 -47q-204 0 -204 179h88q0 -50 28.5 -75t91.5 -25q112 0 112 95q0 52 -30 73.5t-98 33.5q-90 15 -134.5 51.5t-44.5 120.5q0 77 51.5 120.5t145.5 43.5q194 0 194 -171h-86q-2 47 -27 69.5
t-83 22.5q-105 0 -105 -81q0 -47 24.5 -66.5t87.5 -30.5zM243 -218h-82l41 146h100z" />
    <glyph glyph-name="uni021A" unicode="&#x21a;" horiz-adv-x="534" 
d="M314 0h-95v675h-184v87h464v-87h-185v-675zM271 -218h-82l41 146h100z" />
    <glyph glyph-name="uni021B" unicode="&#x21b;" horiz-adv-x="332" 
d="M244 72q25 0 47 5v-82q-28 -7 -67 -7q-90 0 -126 46.5t-36 150.5v527h94v-139h135v-81h-136v-310q0 -63 20 -86.5t69 -23.5zM180 -218h-82l41 146h100z" />
    <glyph glyph-name="dotlessj" unicode="&#x237;" horiz-adv-x="234" 
d="M-12 -193v80q51 -2 67 19.5t16 100.5v586h92v-583q0 -117 -38 -163.5t-137 -39.5z" />
    <glyph glyph-name="circumflex" unicode="&#x2c6;" horiz-adv-x="500" 
d="M321 654l-71 70l-71 -70h-93l131 126h66l131 -126h-93z" />
    <glyph glyph-name="caron" unicode="&#x2c7;" horiz-adv-x="500" 
d="M86 780h93l71 -70l71 70h93l-131 -126h-66z" />
    <glyph glyph-name="breve" unicode="&#x2d8;" horiz-adv-x="500" 
d="M250 651q-136 0 -139 127h68q2 -38 18 -52.5t53 -14.5t53 14.5t18 52.5h68q-3 -127 -139 -127z" />
    <glyph glyph-name="dotaccent" unicode="&#x2d9;" horiz-adv-x="418" 
d="M255 800v-97h-93v97h93z" />
    <glyph glyph-name="ring" unicode="&#x2da;" horiz-adv-x="500" 
d="M365 753q0 -53 -29.5 -81.5t-85.5 -28.5t-85.5 28.5t-29.5 81.5q0 54 29.5 82.5t85.5 28.5t85.5 -28.5t29.5 -82.5zM310 753q0 31 -13.5 46.5t-46.5 15.5t-46.5 -15.5t-13.5 -46.5q0 -30 13.5 -45.5t46.5 -15.5t46.5 15.5t13.5 45.5z" />
    <glyph glyph-name="ogonek" unicode="&#x2db;" horiz-adv-x="376" 
d="M276 -143l2 -62q-32 -7 -74 -7q-114 0 -114 84q0 87 130 141l61 -13q-27 -16 -42.5 -26t-34 -25.5t-27 -31t-8.5 -32.5q0 -35 57 -35q24 0 50 7z" />
    <glyph glyph-name="tilde" unicode="&#x2dc;" horiz-adv-x="500" 
d="M348 769h64q-12 -112 -91 -112q-36 0 -74 24q-37 23 -57 23q-27 0 -36 -47h-64q12 112 91 112q36 0 74 -24q37 -23 57 -23q27 0 36 47z" />
    <glyph glyph-name="hungarumlaut" unicode="&#x2dd;" horiz-adv-x="500" 
d="M195 654h-79l66 133h92zM353 653h-78l69 134h92z" />
    <glyph glyph-name="Wgrave" unicode="&#x1e80;" horiz-adv-x="831" 
d="M538 0l-123 594l-123 -594h-110l-157 762h105l112 -635l125 615h101l122 -610l113 630h103l-157 -762h-111zM467 829h-81l-102 133h98z" />
    <glyph glyph-name="wgrave" unicode="&#x1e81;" horiz-adv-x="736" 
d="M322 593h99l106 -482l94 482h96l-138 -593h-106l-105 451l-105 -451h-106l-138 593h101l94 -479zM419 674h-81l-102 133h98z" />
    <glyph glyph-name="Wacute" unicode="&#x1e82;" horiz-adv-x="831" 
d="M538 0l-123 594l-123 -594h-110l-157 762h105l112 -635l125 615h101l122 -610l113 630h103l-157 -762h-111zM442 829h-81l85 133h98z" />
    <glyph glyph-name="wacute" unicode="&#x1e83;" horiz-adv-x="736" 
d="M322 593h99l106 -482l94 482h96l-138 -593h-106l-105 451l-105 -451h-106l-138 593h101l94 -479zM394 674h-81l85 133h98z" />
    <glyph glyph-name="Wdieresis" unicode="&#x1e84;" horiz-adv-x="831" 
d="M538 0l-123 594l-123 -594h-110l-157 762h105l112 -635l125 615h101l122 -610l113 630h103l-157 -762h-111zM372 941v-86h-84v86h84zM542 941v-86h-84v86h84z" />
    <glyph glyph-name="wdieresis" unicode="&#x1e85;" horiz-adv-x="736" 
d="M322 593h99l106 -482l94 482h96l-138 -593h-106l-105 451l-105 -451h-106l-138 593h101l94 -479zM325 786v-86h-84v86h84zM495 786v-86h-84v86h84z" />
    <glyph glyph-name="Ygrave" unicode="&#x1ef2;" horiz-adv-x="570" 
d="M237 0v330l-229 432h105l174 -355l175 355h100l-230 -433v-329h-95zM336 829h-81l-102 133h98z" />
    <glyph glyph-name="ygrave" unicode="&#x1ef3;" horiz-adv-x="489" 
d="M192 -36l9 32l-188 597h100l142 -493l118 493h101l-158 -577q-34 -125 -80.5 -172t-124.5 -47q-35 0 -66 10v89q21 -8 48 -8q40 0 63.5 16t35.5 60zM289 674h-81l-102 133h98z" />
    <glyph glyph-name="endash" unicode="&#x2013;" horiz-adv-x="446" 
d="M395 341v-77h-344v77h344z" />
    <glyph glyph-name="emdash" unicode="&#x2014;" horiz-adv-x="757" 
d="M723 341v-77h-688v77h688z" />
    <glyph glyph-name="quoteleft" unicode="&#x2018;" horiz-adv-x="200" 
d="M122 593h-91l61 179h79z" />
    <glyph glyph-name="quoteright" unicode="&#x2019;" horiz-adv-x="200" 
d="M84 772h91l-62 -179h-78z" />
    <glyph glyph-name="quotesinglbase" unicode="&#x201a;" horiz-adv-x="200" 
d="M84 47h91l-62 -179h-78z" />
    <glyph glyph-name="quotedblleft" unicode="&#x201c;" horiz-adv-x="372" 
d="M122 593h-91l61 179h79zM294 593h-91l61 179h79z" />
    <glyph glyph-name="quotedblright" unicode="&#x201d;" horiz-adv-x="372" 
d="M84 772h91l-62 -179h-78zM256 772h91l-62 -179h-78z" />
    <glyph glyph-name="quotedblbase" unicode="&#x201e;" horiz-adv-x="372" 
d="M84 47h91l-62 -179h-78zM256 47h91l-62 -179h-78z" />
    <glyph glyph-name="dagger" unicode="&#x2020;" horiz-adv-x="484" 
d="M435 565v-81h-146v-607h-94v607h-146v81h146v261h94v-261h146z" />
    <glyph glyph-name="daggerdbl" unicode="&#x2021;" horiz-adv-x="477" 
d="M435 216v-82h-146v-257h-94v257h-146v82h146v277h-146v81h146v252h94v-252h146v-81h-146v-277h146z" />
    <glyph glyph-name="bullet" unicode="&#x2022;" horiz-adv-x="296" 
d="M221 403v-165h-146v165h146z" />
    <glyph glyph-name="ellipsis" unicode="&#x2026;" horiz-adv-x="1000" 
d="M883 103v-103h-96v103h96zM548 103v-103h-96v103h96zM213 103v-103h-96v103h96z" />
    <glyph glyph-name="perthousand" unicode="&#x2030;" horiz-adv-x="1076" 
d="M264 563v65q0 55 -15.5 74.5t-54.5 19.5t-54.5 -19.5t-15.5 -74.5v-65q0 -57 15.5 -78t54.5 -21t54.5 21t15.5 78zM55 558v77q0 147 139 147t139 -147v-77q0 -85 -37.5 -119t-101.5 -34t-101.5 34t-37.5 119zM527 762h77l-378 -762h-77zM630 138v65q0 55 -15.5 74.5
t-54.5 19.5t-54.5 -19.5t-15.5 -74.5v-65q0 -57 15.5 -78t54.5 -21t54.5 21t15.5 78zM421 133v77q0 147 139 147t139 -147v-77q0 -85 -37.5 -119t-101.5 -34t-101.5 34t-37.5 119zM952 138v65q0 55 -15.5 74.5t-54.5 19.5t-54.5 -19.5t-15.5 -74.5v-65q0 -57 15.5 -78
t54.5 -21t54.5 21t15.5 78zM743 133v77q0 147 139 147t139 -147v-77q0 -85 -37.5 -119t-101.5 -34t-101.5 34t-37.5 119z" />
    <glyph glyph-name="guilsinglleft" unicode="&#x2039;" horiz-adv-x="341" 
d="M47 326l132 214h93l-130 -214l130 -215h-93z" />
    <glyph glyph-name="guilsinglright" unicode="&#x203a;" horiz-adv-x="341" 
d="M294 326l-131 -215h-94l130 215l-130 214h94z" />
    <glyph glyph-name="fraction" unicode="&#x2044;" horiz-adv-x="126" 
d="M255 762h67l-451 -762h-67z" />
    <glyph glyph-name="Euro" unicode="&#x20ac;" horiz-adv-x="617" 
d="M550 558h-91q0 137 -116 137q-72 0 -96 -45.5t-24 -142.5v-20h224v-77h-224v-58h224v-77h-224v-20q0 -99 24.5 -143.5t101.5 -44.5q58 0 83 31.5t29 107.5h91q-2 -111 -51 -164.5t-150 -53.5q-120 0 -169.5 66.5t-49.5 203.5v17h-98v77h98v58h-98v77h98v14
q0 138 49 205.5t165 67.5q204 0 204 -216z" />
    <glyph glyph-name="trademark" unicode="&#x2122;" horiz-adv-x="725" 
d="M335 762h80l89 -228l91 228h75v-428h-63v318l-78 -189h-54l-77 185v-314h-63v428zM304 763v-64h-102v-365h-72v365h-101v64h275z" />
    <glyph glyph-name="minus" unicode="&#x2212;" horiz-adv-x="514" 
d="M448 417v-77h-382v77h382z" />
    <glyph glyph-name="approxequal" unicode="&#x2248;" horiz-adv-x="574" 
d="M438 538h70q-2 -69 -34 -109.5t-82 -40.5q-40 0 -76 21t-66.5 42t-58.5 21q-26 0 -41.5 -22t-17.5 -56h-70q3 69 34.5 109t81.5 40q40 0 76 -21t66.5 -42t58.5 -21q26 0 42 22.5t17 56.5zM442 318h70q-2 -69 -34 -109.5t-82 -40.5q-40 0 -76 21t-66.5 42t-58.5 21
q-26 0 -41.5 -22t-17.5 -56h-70q3 69 34.5 109t81.5 40q40 0 76 -21t66.5 -42t58.5 -21q26 0 42 22.5t17 56.5z" />
    <glyph glyph-name="notequal" unicode="&#x2260;" horiz-adv-x="514" 
d="M436 517v-77h-104l-73 -131h177v-77h-220l-58 -106h-79l58 106h-59v77h102l73 131h-175v77h217l60 107h79l-60 -107h62z" />
    <glyph glyph-name="lessequal" unicode="&#x2264;" horiz-adv-x="514" 
d="M87 343v86l339 186v-88l-250 -140l250 -136v-93zM448 77v-77h-382v77h382z" />
    <glyph glyph-name="greaterequal" unicode="&#x2265;" horiz-adv-x="514" 
d="M426 430v-86l-339 -186v88l250 139l-250 137v93zM448 77v-77h-382v77h382z" />
    <glyph glyph-name="commaaccent" unicode="&#xf6c3;" horiz-adv-x="500" 
d="M267 -218h-82l41 146h100z" />
    <glyph glyph-name="a.alt" 
d="M390 0l-6 48q-41 -60 -149 -60q-180 0 -180 229v164q0 114 52 169t137 55q93 0 135 -53l3 41h88v-593h-80zM378 188v206q0 130 -115 130q-116 0 -116 -148v-161q0 -75 27.5 -110.5t86.5 -35.5q55 0 86 30t31 89z" />
    <glyph glyph-name="aacute.alt" 
d="M390 0l-6 48q-41 -60 -149 -60q-180 0 -180 229v164q0 114 52 169t137 55q93 0 135 -53l3 41h88v-593h-80zM378 188v206q0 130 -115 130q-116 0 -116 -148v-161q0 -75 27.5 -110.5t86.5 -35.5q55 0 86 30t31 89zM288 674h-81l85 133h98z" />
    <glyph glyph-name="abreve.alt" 
d="M390 0l-6 48q-41 -60 -149 -60q-180 0 -180 229v164q0 114 52 169t137 55q93 0 135 -53l3 41h88v-593h-80zM378 188v206q0 130 -115 130q-116 0 -116 -148v-161q0 -75 27.5 -110.5t86.5 -35.5q55 0 86 30t31 89zM262 671q-136 0 -139 127h68q2 -38 18 -52.5t53 -14.5
t53 14.5t18 52.5h68q-3 -127 -139 -127z" />
    <glyph glyph-name="acircumflex.alt" 
d="M390 0l-6 48q-41 -60 -149 -60q-180 0 -180 229v164q0 114 52 169t137 55q93 0 135 -53l3 41h88v-593h-80zM378 188v206q0 130 -115 130q-116 0 -116 -148v-161q0 -75 27.5 -110.5t86.5 -35.5q55 0 86 30t31 89zM333 674l-71 70l-71 -70h-93l131 126h66l131 -126h-93z
" />
    <glyph glyph-name="adieresis.alt" 
d="M390 0l-6 48q-41 -60 -149 -60q-180 0 -180 229v164q0 114 52 169t137 55q93 0 135 -53l3 41h88v-593h-80zM378 188v206q0 130 -115 130q-116 0 -116 -148v-161q0 -75 27.5 -110.5t86.5 -35.5q55 0 86 30t31 89zM219 786v-86h-84v86h84zM389 786v-86h-84v86h84z" />
    <glyph glyph-name="agrave.alt" 
d="M390 0l-6 48q-41 -60 -149 -60q-180 0 -180 229v164q0 114 52 169t137 55q93 0 135 -53l3 41h88v-593h-80zM378 188v206q0 130 -115 130q-116 0 -116 -148v-161q0 -75 27.5 -110.5t86.5 -35.5q55 0 86 30t31 89zM313 674h-81l-102 133h98z" />
    <glyph glyph-name="amacron.alt" 
d="M390 0l-6 48q-41 -60 -149 -60q-180 0 -180 229v164q0 114 52 169t137 55q93 0 135 -53l3 41h88v-593h-80zM378 188v206q0 130 -115 130q-116 0 -116 -148v-161q0 -75 27.5 -110.5t86.5 -35.5q55 0 86 30t31 89zM140 774h244v-71h-244v71z" />
    <glyph glyph-name="aogonek.alt" 
d="M390 0l-6 48q-41 -60 -149 -60q-180 0 -180 229v164q0 114 52 169t137 55q93 0 135 -53l3 41h88v-593h-80zM378 188v206q0 130 -115 130q-116 0 -116 -148v-161q0 -75 27.5 -110.5t86.5 -35.5q55 0 86 30t31 89zM465 -143l2 -62q-32 -7 -74 -7q-114 0 -114 84
q0 87 130 141l61 -13q-27 -16 -42.5 -26t-34 -25.5t-27 -31t-8.5 -32.5q0 -35 57 -35q24 0 50 7z" />
    <glyph glyph-name="aring.alt" 
d="M390 0l-6 48q-41 -60 -149 -60q-180 0 -180 229v164q0 114 52 169t137 55q93 0 135 -53l3 41h88v-593h-80zM378 188v206q0 130 -115 130q-116 0 -116 -148v-161q0 -75 27.5 -110.5t86.5 -35.5q55 0 86 30t31 89zM377 773q0 -53 -29.5 -81.5t-85.5 -28.5t-85.5 28.5
t-29.5 81.5q0 54 29.5 82.5t85.5 28.5t85.5 -28.5t29.5 -82.5zM322 773q0 31 -13.5 46.5t-46.5 15.5t-46.5 -15.5t-13.5 -46.5q0 -30 13.5 -45.5t46.5 -15.5t46.5 15.5t13.5 45.5z" />
    <glyph glyph-name="aringacute.alt" 
d="M390 0l-6 48q-41 -60 -149 -60q-180 0 -180 229v164q0 114 52 169t137 55q93 0 135 -53l3 41h88v-593h-80zM378 188v206q0 130 -115 130q-116 0 -116 -148v-161q0 -75 27.5 -110.5t86.5 -35.5q55 0 86 30t31 89zM380 735q0 -53 -29.5 -81.5t-85.5 -28.5t-85.5 28.5
t-29.5 81.5q0 54 29.5 82.5t85.5 28.5t85.5 -28.5t29.5 -82.5zM325 735q0 31 -13.5 46.5t-46.5 15.5t-46.5 -15.5t-13.5 -46.5q0 -30 13.5 -45.5t46.5 -15.5t46.5 15.5t13.5 45.5zM289 867h-81l85 133h98z" />
    <glyph glyph-name="atilde.alt" 
d="M390 0l-6 48q-41 -60 -149 -60q-180 0 -180 229v164q0 114 52 169t137 55q93 0 135 -53l3 41h88v-593h-80zM378 188v206q0 130 -115 130q-116 0 -116 -148v-161q0 -75 27.5 -110.5t86.5 -35.5q55 0 86 30t31 89zM360 789h64q-12 -112 -91 -112q-36 0 -74 24
q-37 23 -57 23q-27 0 -36 -47h-64q12 112 91 112q36 0 74 -24q37 -23 57 -23q27 0 36 47z" />
    <glyph glyph-name="g.alt" horiz-adv-x="506" 
d="M219 605q94 0 140 -54l3 42h88v-287q0 -104 -51 -147q60 -52 60 -153v-17q0 -95 -53 -145.5t-152 -50.5q-103 0 -150.5 44t-47.5 135h87q1 -52 27 -77t86 -25q55 0 82.5 27.5t27.5 90.5v17q0 70 -41 111q-35 -18 -85 -18q-204 0 -204 229v54q0 117 50.5 170.5t132.5 53.5
zM128 376v-51q0 -75 27.5 -110.5t86.5 -35.5q55 0 85.5 30t30.5 89v96q0 130 -114 130q-116 0 -116 -148z" />
    <glyph glyph-name="gbreve.alt" horiz-adv-x="506" 
d="M219 605q94 0 140 -54l3 42h88v-287q0 -104 -51 -147q60 -52 60 -153v-17q0 -95 -53 -145.5t-152 -50.5q-103 0 -150.5 44t-47.5 135h87q1 -52 27 -77t86 -25q55 0 82.5 27.5t27.5 90.5v17q0 70 -41 111q-35 -18 -85 -18q-204 0 -204 229v54q0 117 50.5 170.5t132.5 53.5
zM128 376v-51q0 -75 27.5 -110.5t86.5 -35.5q55 0 85.5 30t30.5 89v96q0 130 -114 130q-116 0 -116 -148zM254 671q-136 0 -139 127h68q2 -38 18 -52.5t53 -14.5t53 14.5t18 52.5h68q-3 -127 -139 -127z" />
    <glyph glyph-name="gcircumflex.alt" horiz-adv-x="506" 
d="M219 605q94 0 140 -54l3 42h88v-287q0 -104 -51 -147q60 -52 60 -153v-17q0 -95 -53 -145.5t-152 -50.5q-103 0 -150.5 44t-47.5 135h87q1 -52 27 -77t86 -25q55 0 82.5 27.5t27.5 90.5v17q0 70 -41 111q-35 -18 -85 -18q-204 0 -204 229v54q0 117 50.5 170.5t132.5 53.5
zM128 376v-51q0 -75 27.5 -110.5t86.5 -35.5q55 0 85.5 30t30.5 89v96q0 130 -114 130q-116 0 -116 -148zM325 674l-71 70l-71 -70h-93l131 126h66l131 -126h-93z" />
    <glyph glyph-name="gcommaaccent.alt" horiz-adv-x="506" 
d="M219 605q94 0 140 -54l3 42h88v-287q0 -104 -51 -147q60 -52 60 -153v-17q0 -95 -53 -145.5t-152 -50.5q-103 0 -150.5 44t-47.5 135h87q1 -52 27 -77t86 -25q55 0 82.5 27.5t27.5 90.5v17q0 70 -41 111q-35 -18 -85 -18q-204 0 -204 229v54q0 117 50.5 170.5t132.5 53.5
zM128 376v-51q0 -75 27.5 -110.5t86.5 -35.5q55 0 85.5 30t30.5 89v96q0 130 -114 130q-116 0 -116 -148zM257 803h82l-41 -146h-100z" />
    <glyph glyph-name="gdotaccent.alt" horiz-adv-x="506" 
d="M219 605q94 0 140 -54l3 42h88v-287q0 -104 -51 -147q60 -52 60 -153v-17q0 -95 -53 -145.5t-152 -50.5q-103 0 -150.5 44t-47.5 135h87q1 -52 27 -77t86 -25q55 0 82.5 27.5t27.5 90.5v17q0 70 -41 111q-35 -18 -85 -18q-204 0 -204 229v54q0 117 50.5 170.5t132.5 53.5
zM128 376v-51q0 -75 27.5 -110.5t86.5 -35.5q55 0 85.5 30t30.5 89v96q0 130 -114 130q-116 0 -116 -148zM300 820v-97h-93v97h93z" />
    <glyph glyph-name="y.alt" horiz-adv-x="547" 
d="M268 -127q65 0 90.5 33t25.5 118v34q-47 -50 -135 -50q-188 0 -188 229v356h92v-358q0 -75 27.5 -110.5t86.5 -35.5q55 0 86 30t31 89v385h92v-561q0 -128 -52 -181.5t-159 -53.5q-98 0 -143 40.5t-48 122.5h88q3 -44 28 -65.5t78 -21.5z" />
    <glyph glyph-name="yacute.alt" horiz-adv-x="547" 
d="M268 -127q65 0 90.5 33t25.5 118v34q-47 -50 -135 -50q-188 0 -188 229v356h92v-358q0 -75 27.5 -110.5t86.5 -35.5q55 0 86 30t31 89v385h92v-561q0 -128 -52 -181.5t-159 -53.5q-98 0 -143 40.5t-48 122.5h88q3 -44 28 -65.5t78 -21.5zM294 674h-81l85 133h98z" />
    <glyph glyph-name="ycircumflex.alt" horiz-adv-x="547" 
d="M268 -127q65 0 90.5 33t25.5 118v34q-47 -50 -135 -50q-188 0 -188 229v356h92v-358q0 -75 27.5 -110.5t86.5 -35.5q55 0 86 30t31 89v385h92v-561q0 -128 -52 -181.5t-159 -53.5q-98 0 -143 40.5t-48 122.5h88q3 -44 28 -65.5t78 -21.5zM339 674l-71 70l-71 -70h-93
l131 126h66l131 -126h-93z" />
    <glyph glyph-name="ydieresis.alt" horiz-adv-x="547" 
d="M268 -127q65 0 90.5 33t25.5 118v34q-47 -50 -135 -50q-188 0 -188 229v356h92v-358q0 -75 27.5 -110.5t86.5 -35.5q55 0 86 30t31 89v385h92v-561q0 -128 -52 -181.5t-159 -53.5q-98 0 -143 40.5t-48 122.5h88q3 -44 28 -65.5t78 -21.5zM225 786v-86h-84v86h84zM395 786
v-86h-84v86h84z" />
    <glyph glyph-name="ygrave.alt" horiz-adv-x="547" 
d="M268 -127q65 0 90.5 33t25.5 118v34q-47 -50 -135 -50q-188 0 -188 229v356h92v-358q0 -75 27.5 -110.5t86.5 -35.5q55 0 86 30t31 89v385h92v-561q0 -128 -52 -181.5t-159 -53.5q-98 0 -143 40.5t-48 122.5h88q3 -44 28 -65.5t78 -21.5zM319 674h-81l-102 133h98z" />
    </font>
</defs>
</svg>
